<?xml version="1.0" encoding="UTF-8"?>
<svg width="13px" height="12px" viewBox="0 0 13 12" version="1.1" xmlns="http://www.w3.org/2000/svg" xmlns:xlink="http://www.w3.org/1999/xlink">
  <g stroke="none" stroke-width="1" fill="none" fill-rule="evenodd">
    <g fill="#787878" fill-rule="nonzero">
      <path d="M6.53571429,3.54635714 L6.53571429,1.53571429 C6.53571429,1.33457143 6.45871429,1.13342857 6.3055,0.979428571 C6.15228571,0.826214286 5.95114286,0.75 5.75,0.75 C5.54885714,0.75 5.34771429,0.826214286 5.1945,0.979428571 L0.25,5.85714286 L5.1945,10.7340714 C5.34771429,10.8872857 5.54885714,10.9642857 5.75,10.9642857 C5.95114286,10.9642857 6.15228571,10.8872857 6.3055,10.7340714 C6.45871429,10.5808571 6.53571429,10.3789286 6.53571429,10.1785714 L6.53571429,8.22292857 C8.69642857,8.27635714 11.0575,8.66764286 12.8214286,11.3571429 L12.8214286,10.5714286 C12.8214286,6.93121429 10.0714286,3.93764286 6.53571429,3.54635714 Z" transform="translate(6.535714, 6.053571) scale(-1, 1) translate(-6.535714, -6.053571) "></path>
    </g>
  </g>
</svg>
