<svg width="512" height="288" fill="none" xmlns="http://www.w3.org/2000/svg"><path d="M22.968 83.192L6.08 84.666 3.739 57.96c-.408-4.654 3.04-8.758 7.705-9.165L38.2 46.458l1.478 16.857-18.312 1.599 1.602 18.278zm469.224-40.975l-16.888 1.475-1.603-18.278-18.312 1.6-1.477-16.858 26.756-2.336c4.665-.407 8.775 3.037 9.183 7.691l2.341 26.706zM58.397 276.881l-26.756 2.336c-4.663.407-8.775-3.035-9.183-7.691l-2.34-26.706 16.887-1.475 1.603 18.278 18.312-1.599 1.477 16.857zm442.468-38.639l-26.756 2.337-1.477-16.857 18.312-1.599-1.602-18.278 16.888-1.474 2.341 26.706c.408 4.656-3.041 8.758-7.706 9.165zm-215.703-92.16l-57.127 4.988a5.083 5.083 0 0 1-5.51-4.614 5.08 5.08 0 0 1 4.623-5.5l57.127-4.988a5.082 5.082 0 0 1 5.51 4.614 5.08 5.08 0 0 1-4.623 5.5z" fill="#CCC"/><path d="M257.821 162.526a5.084 5.084 0 0 1-5.51-4.615l-2.445-27.899a5.08 5.08 0 0 1 4.623-5.5 5.084 5.084 0 0 1 5.51 4.615l2.445 27.899a5.08 5.08 0 0 1-4.623 5.5z" fill="#CCC"/><path d="M187.817 110.925c-1.267-14.463-16.097-25.026-33.058-23.545-7.99.698-15.329 3.943-20.663 9.137l8.524 8.72c3.323-3.235 8.012-5.267 13.203-5.72 10.255-.896 19.155 4.698 19.836 12.469.664 7.576-6.735 14.452-16.611 15.622a5.87 5.87 0 0 1-3.921-.673c-1.153-.655-1.963-1.643-2.218-2.709-.186-.767-.067-1.479.352-2.115 1.183-1.804 4.214-2.171 6.565-.922 1.508.803 8.257-1.675 9.348-5.825.3-1.141-.379-3.096-3.309-4.759-8.013-4.558-18.034-2.439-22.808 4.819-2.278 3.464-2.994 7.601-2.016 11.652 1.042 4.324 3.976 8.132 8.047 10.445a18.064 18.064 0 0 0 10.269 2.312v.007c.027-.003.052-.01.079-.012.046-.003.09-.001.136-.005.39-.035.777-.106 1.165-.165 16.261-2.048 28.313-14.67 27.08-28.733z" fill="#7E72D8"/><path d="M172.509 69.773s-32.96 38.998-36.038 42.656c-3.075 3.659-15.961-.138-11.791-5.099 4.17-4.96 38.394-45.459 38.394-45.459l9.435 7.902z" fill="#7E97F2"/><path d="M374.393 108.415l-26.429 2.308-1.011-11.533 22.178-1.937c1.241-.108 1.504-.664 1.438-1.418-.089-1.015-.654-1.366-1.674-1.277l-20.099 1.755-.953-10.87-5.092.444-1.018-11.621 5.091-.445-.205-2.343 13.149-1.148.206 2.343 22.137-1.933 1.019 11.62-22.138 1.934.186 2.12 11.201-.978c8.103-.707 11.806 4.402 12.337 10.456.6 6.851-2.929 11.878-10.323 12.523z" fill="#FF7DBB"/><path d="M409.362 99.261l-7.483.654-.894-10.207 7.483-.654c1.106-.096 1.462-.618 1.384-1.502-.054-.617-.535-1.021-1.597-.928l-8.944.78 2.509 18.439-9.962.869-2.464-18.441-2.079.181-.848-9.677 1.636-.143-.424-3.303 9.873-.862.468 3.299 5.933-.518-.295-3.358 9.652-.843.36 4.11c5.041 1.029 6.945 4.424 7.398 9.594.686 7.822-3.16 11.764-11.706 12.51z" fill="#7E72D8"/><path d="M453.266 101.439c-7.26.634-11.765-1.91-12.431-9.51l-.713-8.134c-.089-1.015-.776-1.71-2.148-1.59l-.709.061.723 20.464-12.085 1.056-1.415-39.552 12.13-1.06.201 6.35 1.283-.113c7.35-.642 11.715 2.852 12.335 9.923l.763 8.705c.073.84.503 1.159 1.167 1.1.575-.05 1.212-.418 1.135-1.301l-1.499-17.101 11.246-.982 1.44 16.437c.709 8.088-2.037 14.427-11.423 15.247z" fill="#FF7DBB"/><path d="M172.045 59.33l-43.33 3.783c-6.229.544-.04 11.894 4.552 11.493l36.295-3.17c4.592-.4 8.712-12.65 2.483-12.106z" fill="#7E72D8"/><path d="M82.533 91.317l-.002-.03-5.698.498c1.77-6.234 3.013-10.61 3.195-11.247 1.955-6.858-12.707-4.89-14.15.17-.13.454-1.527 5.376-3.504 12.34l-20.73 1.81c-7.119.621-.047 13.592 5.201 13.134l11.574-1.011c-5.123 18.052-11.07 39.005-11.485 40.458-1.957 6.858 12.707 4.891 14.15-.168l11.795-41.552 10.224-.893c8.718-.761 16.43 5.697 17.192 14.399.763 8.701-5.707 16.402-14.425 17.163l-3.99.349c-7.1.62-.074 13.53 5.171 13.131v.006l.026-.004c.002-.001.005.001.008.001l.663-.058-.005-.035c15.812-1.758 27.457-15.83 26.063-31.733-1.396-15.931-15.36-27.786-31.273-26.728z" fill="#FF7DBB"/><path d="M121.038 91.536c.594 6.776-4.429 12.75-11.218 13.343-6.787.593-12.773-4.42-13.367-11.197-.594-6.776 4.429-12.75 11.216-13.343 6.789-.593 12.775 4.42 13.369 11.197z" fill="#FFBEBB"/><path d="M314.108 62.554l.154 1.75 1.029 11.74 1.917 21.869c.615 7.021-4.606 13.23-11.64 13.844l-7.749.677c-8.005.699-.05 15.291 5.856 14.775l3.381-.295-.001-.008c15.231-1.415 26.531-14.812 25.363-30.019l.015-.001-1.943-22.17-1.029-11.74-.549-6.265c-.7-7.99-15.32-.051-14.804 5.843z" fill="#7E72D8"/><path d="M282.48 66.162l.227 2.588.515 5.88.44 5.021.614 6.997.128 1.47c.517 5.895 16.296 11.18 15.596 3.189l-.525-5.986-.613-6.997-.44-5.022-.516-5.88-.622-7.103c-.701-7.992-15.321-.051-14.804 5.843z" fill="#7E97F2"/><path d="M229.727 89.657c.597 6.812-4.305 12.844-11.02 13.76-6.772.261-12.648-4.829-13.245-11.64-.616-7.022 4.605-13.232 11.64-13.847l-.074-.842 11.509-1.005 1.19 13.574zm21.483-29.004l-.012-.138-8.643.755-.674-7.68-.868-9.908c-.701-7.992-15.32-.052-14.804 5.843l.473 5.392.673 7.68-11.509 1.005-.074-.842c-15.414 1.346-26.858 14.958-25.51 30.343 1.312 14.966 14.259 26.145 29.149 25.507l.006.064c.211-.018.411-.063.62-.086.208-.014.415-.004.626-.023l-.005-.064c14.205-1.876 24.707-14.202 24.331-28.45l.088-.008-.04-.449-1.3-14.839 5.912-.516c7.499-.655 14.134 4.903 14.79 12.387.656 7.484-4.912 14.108-12.41 14.762l1.182 13.486c14.95-1.306 26.047-14.506 24.739-29.428-1.227-14-12.948-24.614-26.74-24.793" fill="#FF7DBB"/><path d="M207.847 54.773l-.079.007.045.516 1.061 12.107.121 1.382.919 10.481.142 1.625c.517 5.893 16.296 11.18 15.596 3.187l-.539-6.139-.918-10.481-.121-1.383-1.107-12.622-.35-4c-.681-7.76-14.442-.504-14.77 5.32z" fill="#FFBEBB"/><path d="M455.043 161.68l-16.899 8.657 8.356-17.028 8.543 8.371zm2.749 14.703l-16.408-2.659 15.206-4.964 1.202 7.623zm-20.03-25.13l-3.56 17.064-3.411-15.677 6.971-1.387zm-2.439 36.721a1.83 1.83 0 0 1-2.314 1.156l-3.911-1.294a1.825 1.825 0 0 1-1.161-2.309l.481-1.448a1.832 1.832 0 0 1 2.313-1.159l3.912 1.296a1.824 1.824 0 0 1 1.16 2.309l-.48 1.449zm-31.324 16.103c-6.8-2.253-10.484-9.582-8.226-16.368 2.257-6.786 9.598-10.461 16.398-8.209 6.797 2.253 10.482 9.58 8.225 16.366-2.257 6.787-9.598 10.462-16.397 8.211zm-20.642-7.802a.917.917 0 0 1-1.157.581l-.724-.241a.914.914 0 0 1-.581-1.156l7.595-22.843a.917.917 0 0 1 1.158-.578l.724.241c.478.157.74.674.581 1.153l-7.596 22.843zm56.932-14.281l-14.172-4.694-.006-3.171c-.003-2.017-1.56-4.169-3.479-4.805l-12.749-4.224c-1.919-.635-4.457.16-5.668 1.776l-1.901 2.537-7.799-2.582.529-1.593a.915.915 0 0 0-.58-1.156l-3.189-1.054a.914.914 0 0 0-1.156.579l-.529 1.592-1.45-.481a3.665 3.665 0 0 0-4.628 2.318l-9.953 29.929a3.652 3.652 0 0 0 2.321 4.619l52.149 17.276a3.662 3.662 0 0 0 4.628-2.316l9.953-29.93a3.653 3.653 0 0 0-2.321-4.62z" fill="#FF7DBB"/><path d="M415.773 193.811a4.636 4.636 0 0 1-5.025-4.208c-.19-2.166 1.154-4.1 3.127-4.771a9.012 9.012 0 0 0-2.93-1.645c-4.76-1.577-9.901.995-11.48 5.747-1.58 4.749.998 9.88 5.759 11.456 4.76 1.577 9.9-.997 11.48-5.746.122-.369.175-.741.25-1.113a4.597 4.597 0 0 1-1.181.28zm-104.59-16.364l33.777-2.949c5.754-.503 10.913-15.846 3.112-15.165l-42.592 3.719c-7.799.682-.049 14.898 5.703 14.395zm38.017 4.599c-.316-.032-.631-.067-.989-.036l-44.991 3.929c-7.799.681-.05 14.896 5.704 14.393l34.846-3.043c-2.804 11.116-6.512 25.837-7.138 28.261-2.2 8.512 15.812 5.638 17.434-.641.665-2.57 7.124-28.461 7.789-31.03 1.323-5.119-7.978-13.512-12.655-11.833z" fill="#FF7DBB"/><path d="M278.657 167.953c-1.097 1.481-8.065 10.907-16.239 21.964-5.557-4.103-10.04-7.414-11.287-8.333-8.503-6.263-13.379 15.03-7.108 19.65.713.525 3.206 2.368 6.485 4.791l-17.395 23.527c-6.274 8.489 15.06 13.354 19.688 7.095l13.829-18.707c4.069 3.008 7.292 5.388 8.119 5.997 6.271 4.62 25.219-6.309 16.718-12.572-1.368-1.006-6.625-4.887-12.922-9.538a75748.95 75748.95 0 0 1 12.708-17.189c4.628-6.26-6.322-25.172-12.596-16.685z" fill="#7E72D8"/><path d="M209.592 184.464l-.003-.035-11.854 1.035c1.387-4.886 2.347-8.266 2.538-8.934 2.332-8.176-15.148-5.831-16.869.2-.142.496-1.273 4.483-2.907 10.239l-19.995 1.746c-8.532.745-.055 16.294 6.237 15.745l9.02-.788c-4.762 16.785-10.067 35.49-10.545 37.165-2.333 8.175 15.148 5.83 16.867-.2.33-1.152 5.989-21.105 10.916-38.47l12.565-1.097 1.983 22.62-6.161.538c-9.749.851-.063 18.62 7.13 17.992l5.602-.489-.001-.007c5.473-.605 13.099-6.428 12.683-11.17l-3.267-37.272c-.403-4.602-8.444-8.892-13.939-8.818z" fill="#FF7DBB"/><rect x="373" y="216" width="139" height="72" rx="36" fill="url(#paint0_linear)"/><path d="M400.047 268v-34.125h10.5c3 0 5.68.68 8.039 2.039 2.375 1.344 4.226 3.266 5.555 5.766 1.328 2.484 1.992 5.312 1.992 8.484v1.57c0 3.172-.656 5.993-1.969 8.461-1.297 2.469-3.133 4.383-5.508 5.743-2.375 1.359-5.054 2.046-8.039 2.062h-10.57zm7.031-28.43v22.782h3.399c2.75 0 4.851-.899 6.304-2.696 1.453-1.797 2.196-4.367 2.227-7.711v-1.804c0-3.469-.719-6.094-2.156-7.875-1.438-1.797-3.54-2.696-6.305-2.696h-3.469zm44.719 13.641h-13.5v9.141h15.844V268h-22.875v-34.125h22.828v5.695h-15.797v8.133h13.5v5.508zm19.078 6.328l7.734-25.664h7.829L474.555 268h-7.336l-11.836-34.125h7.805l7.687 25.664z" fill="#fff"/><defs><linearGradient id="paint0_linear" x1="373" y1="216" x2="512" y2="288" gradientUnits="userSpaceOnUse"><stop stop-color="#FF91BE"/><stop offset="1" stop-color="#91C3FF"/></linearGradient></defs></svg>