<svg width="16" height="16" viewBox="0 0 16 16" fill="none" xmlns="http://www.w3.org/2000/svg">
  <g clip-path="url(#clip0)">
    <path d="M2.5649 4.28166L6.64973 14.4556C6.82556 14.8938 7.32285 15.1066 7.76107 14.9302L13.0945 12.7889C13.5328 12.6131 13.7453 12.1153 13.5695 11.6773L9.48434 1.50314C9.30853 1.06491 8.81069 0.852408 8.37246 1.02822L3.039 3.16975C2.60105 3.34587 2.38909 3.84343 2.5649 4.28166ZM10.2203 13.3806C9.94415 13.4917 9.63077 13.3582 9.51993 13.0821C9.40936 12.8065 9.54312 12.4931 9.81927 12.3823C10.0946 12.2717 10.4083 12.4052 10.5188 12.6811C10.6294 12.9572 10.4956 13.27 10.2203 13.3806ZM4.0603 4.27977L8.40241 2.53656C8.52295 2.488 8.65995 2.54626 8.70877 2.66708L11.8535 10.4994C11.9021 10.6199 11.8433 10.7572 11.7227 10.8055L7.38086 12.5487C7.26004 12.5969 7.12304 12.5384 7.07476 12.4179L3.93029 4.58559C3.8815 4.46503 3.93973 4.32802 4.0603 4.27977Z" fill="#3C3C3C"/>
    <path d="M3.59104 2.32242C3.58808 2.29382 3.58187 2.26632 3.57107 2.23961C3.52254 2.11908 3.39794 2.04384 3.26824 2.05596C2.01044 2.17839 1.08599 3.30029 1.20788 4.55888C1.22325 4.71692 1.37291 4.83963 1.53121 4.82451C1.60995 4.81695 1.68116 4.77894 1.73105 4.71825C1.78173 4.65677 1.80465 4.57964 1.79684 4.50143C1.75316 4.05079 1.88799 3.60797 2.17655 3.25739C2.46593 2.906 2.87342 2.68836 3.32459 2.64521C3.48667 2.62959 3.60613 2.48503 3.59104 2.32242Z" fill="#3C3C3C"/>
    <path d="M3.15065 1.48344C3.31244 1.46753 3.43193 1.323 3.41602 1.16089C3.4136 1.13258 3.40711 1.10508 3.39634 1.07863C3.34806 0.957813 3.22375 0.88257 3.09348 0.894979C2.1844 0.983166 1.36376 1.42058 0.781784 2.12796C0.200348 2.83506 -0.0723061 3.72475 0.0164448 4.63462C0.0328864 4.7921 0.182017 4.91455 0.338706 4.89972C0.417445 4.89216 0.488627 4.85468 0.538516 4.79373C0.58894 4.73251 0.612686 4.65591 0.604874 4.57692C0.45439 3.02196 1.59594 1.63446 3.15065 1.48344Z" fill="#3C3C3C"/>
    <path d="M12.6957 13.7571C12.7024 13.7851 12.713 13.8113 12.7275 13.8361C12.7928 13.9483 12.9271 14.0047 13.0538 13.9739C14.2809 13.6713 15.0338 12.4279 14.7315 11.2C14.6935 11.046 14.5279 10.9463 14.3731 10.984C14.2965 11.0029 14.2315 11.0509 14.1908 11.118C14.1495 11.1863 14.1382 11.2658 14.1569 11.3424C14.265 11.782 14.1959 12.2394 13.9602 12.6282C13.7248 13.0174 13.3526 13.2917 12.9128 13.3995C12.7545 13.4383 12.6574 13.5988 12.6957 13.7571Z" fill="#3C3C3C"/>
    <path d="M15.5427 10.738C15.4659 10.7569 15.4014 10.8044 15.3596 10.8718C15.3189 10.9397 15.3062 11.019 15.3251 11.0962C15.6991 12.6128 14.769 14.1503 13.2526 14.5235C13.0946 14.5629 12.9975 14.7231 13.036 14.8817C13.0422 14.9094 13.0528 14.9353 13.0671 14.9601C13.1326 15.0723 13.2669 15.1289 13.3939 15.0979C14.2804 14.8795 15.0295 14.3283 15.5036 13.5446C15.9772 12.7612 16.1183 11.8415 15.8995 10.9538C15.8609 10.8006 15.6956 10.7008 15.5427 10.738Z" fill="#3C3C3C"/>
  </g>
  <defs>
    <clipPath id="clip0">
      <rect width="16" height="16" fill="white"/>
    </clipPath>
  </defs>
</svg>
