<svg width="15" height="15" viewBox="0 0 15 15" fill="none" xmlns="http://www.w3.org/2000/svg">
  <path d="M9.4904 5.82155H14.163C14.3051 5.82155 14.4295 5.87485 14.5361 5.98145C14.6427 6.08805 14.696 6.21241 14.696 6.35454V8.87739C14.696 9.01952 14.6427 9.14389 14.5361 9.25048C14.4295 9.35708 14.3051 9.41038 14.163 9.41038H9.4904V14.083C9.4904 14.2251 9.4371 14.3495 9.3305 14.4561C9.2239 14.5627 9.09954 14.616 8.95741 14.616H6.43456C6.29243 14.616 6.16807 14.5627 6.06147 14.4561C5.95487 14.3495 5.90157 14.2251 5.90157 14.083V9.41038H1.22898C1.08685 9.41038 0.962482 9.35708 0.855883 9.25048C0.749285 9.14389 0.695984 9.01952 0.695984 8.87739V6.35454C0.695984 6.21241 0.749285 6.08805 0.855883 5.98145C0.962482 5.87485 1.08685 5.82155 1.22898 5.82155H5.90157V1.14896C5.90157 1.00683 5.95487 0.882464 6.06147 0.775865C6.16807 0.669266 6.29243 0.615967 6.43456 0.615967H8.95741C9.09954 0.615967 9.2239 0.669266 9.3305 0.775865C9.4371 0.882464 9.4904 1.00683 9.4904 1.14896V5.82155Z" fill="#3C3C3C"/>
</svg>
