<svg width="10" height="14" viewBox="0 0 10 14" fill="none" xmlns="http://www.w3.org/2000/svg">
<path d="M7.0429 4.11221C7.0429 3.87899 7.12541 3.67987 7.29043 3.51485C7.45545 3.34984 7.65457 3.26733 7.88779 3.26733C8.12101 3.26733 8.32013 3.34984 8.48515 3.51485C8.65016 3.67987 8.73267 3.87899 8.73267 4.11221C8.73267 4.34543 8.65016 4.54455 8.48515 4.70957C8.32013 4.87459 8.12101 4.9571 7.88779 4.9571C7.65457 4.9571 7.45545 4.87459 7.29043 4.70957C7.12541 4.54455 7.0429 4.34543 7.0429 4.11221ZM-3.11993e-07 7.91419C-3.11993e-07 8.14741 0.0814078 8.34543 0.244224 8.50825L3.48515 11.7558C3.65677 11.9186 3.85699 12 4.08581 12C4.31903 12 4.51705 11.9186 4.67987 11.7558L9.39934 7.0297C9.56656 6.86689 9.70847 6.64466 9.82508 6.36304C9.94169 6.08141 10 5.82398 10 5.59076V2.84488C10 2.61606 9.91639 2.41804 9.74917 2.25083C9.58196 2.08361 9.38394 2 9.15512 2H6.40924C6.17602 2 5.91859 2.05831 5.63696 2.17492C5.35534 2.29153 5.13091 2.43344 4.9637 2.60066L0.244224 7.31353C0.0814078 7.48515 -3.11993e-07 7.68537 -3.11993e-07 7.91419Z" fill="#787878"/>
</svg>
