<svg width="86" height="28" viewBox="0 0 86 28" fill="none" xmlns="http://www.w3.org/2000/svg">
  <rect width="86" height="28" fill="#FFBB28"/>
  <path d="M12.8887 19V9.04688H16.375C17.5827 9.04688 18.4987 9.2793 19.123 9.74414C19.7474 10.2044 20.0596 10.8812 20.0596 11.7744C20.0596 12.262 19.9342 12.6927 19.6836 13.0664C19.4329 13.4355 19.0843 13.7067 18.6377 13.8799C19.1481 14.0075 19.5492 14.265 19.8408 14.6523C20.137 15.0397 20.2852 15.5137 20.2852 16.0742C20.2852 17.0312 19.9798 17.7559 19.3691 18.248C18.7585 18.7402 17.888 18.9909 16.7578 19H12.8887ZM14.9395 14.666V17.3525H16.6963C17.1794 17.3525 17.5553 17.2386 17.8242 17.0107C18.0977 16.7783 18.2344 16.4593 18.2344 16.0537C18.2344 15.1423 17.7627 14.6797 16.8193 14.666H14.9395ZM14.9395 13.2168H16.457C17.4915 13.1986 18.0088 12.7861 18.0088 11.9795C18.0088 11.5283 17.8766 11.2048 17.6123 11.0088C17.3525 10.8083 16.9401 10.708 16.375 10.708H14.9395V13.2168Z" fill="white"/>
  <path d="M27.4492 16.9492H23.8535L23.1699 19H20.9893L24.6943 9.04688H26.5947L30.3203 19H28.1396L27.4492 16.9492ZM24.4072 15.2881H26.8955L25.6445 11.5625L24.4072 15.2881Z" fill="white"/>
  <path d="M38.9131 15.6846C38.8356 16.7555 38.4391 17.5986 37.7236 18.2139C37.0127 18.8291 36.0739 19.1367 34.9072 19.1367C33.6312 19.1367 32.6263 18.7083 31.8926 17.8516C31.1634 16.9902 30.7988 15.8099 30.7988 14.3105V13.7021C30.7988 12.7451 30.9674 11.902 31.3047 11.1729C31.6419 10.4437 32.1227 9.88542 32.7471 9.49805C33.376 9.10612 34.1051 8.91016 34.9346 8.91016C36.083 8.91016 37.0081 9.21777 37.71 9.83301C38.4118 10.4482 38.8174 11.3118 38.9268 12.4238H36.876C36.8258 11.7812 36.6458 11.3164 36.3359 11.0293C36.0306 10.7376 35.5635 10.5918 34.9346 10.5918C34.251 10.5918 33.7383 10.8379 33.3965 11.3301C33.0592 11.8177 32.8861 12.5765 32.877 13.6064V14.3584C32.877 15.4339 33.0387 16.2201 33.3623 16.7168C33.6904 17.2135 34.2054 17.4619 34.9072 17.4619C35.5407 17.4619 36.0124 17.3184 36.3223 17.0312C36.6367 16.7396 36.8167 16.2907 36.8623 15.6846H38.9131Z" fill="white"/>
  <path d="M43.377 15.0078L42.3105 16.1562V19H40.2598V9.04688H42.3105V13.5586L43.2129 12.3213L45.749 9.04688H48.2715L44.7373 13.4697L48.374 19H45.9336L43.377 15.0078Z" fill="white"/>
  <path d="M55.1348 14.6865H51.1973V17.3525H55.8184V19H49.1465V9.04688H55.8047V10.708H51.1973V13.0801H55.1348V14.6865Z" fill="white"/>
  <path d="M60.7061 15.3564H59.0723V19H57.0215V9.04688H60.7197C61.8955 9.04688 62.8024 9.30892 63.4404 9.83301C64.0785 10.3571 64.3975 11.0977 64.3975 12.0547C64.3975 12.7337 64.2493 13.3011 63.9531 13.7568C63.6615 14.208 63.2171 14.568 62.6201 14.8369L64.7734 18.9043V19H62.5723L60.7061 15.3564ZM59.0723 13.6953H60.7266C61.2415 13.6953 61.6403 13.5654 61.9229 13.3057C62.2054 13.0413 62.3467 12.679 62.3467 12.2188C62.3467 11.7493 62.2122 11.3802 61.9434 11.1113C61.679 10.8424 61.2712 10.708 60.7197 10.708H59.0723V13.6953Z" fill="white"/>
  <path d="M71.124 16.3887C71.124 16.0013 70.9873 15.7051 70.7139 15.5C70.4404 15.2904 69.9482 15.0716 69.2373 14.8438C68.5264 14.6113 67.9635 14.3835 67.5488 14.1602C66.4186 13.5495 65.8535 12.7269 65.8535 11.6924C65.8535 11.1546 66.0039 10.6761 66.3047 10.2568C66.61 9.83301 67.0452 9.5026 67.6104 9.26562C68.18 9.02865 68.818 8.91016 69.5244 8.91016C70.2354 8.91016 70.8688 9.04004 71.4248 9.2998C71.9808 9.55501 72.4115 9.91732 72.7168 10.3867C73.0267 10.8561 73.1816 11.3893 73.1816 11.9863H71.1309C71.1309 11.5306 70.9873 11.1774 70.7002 10.9268C70.4131 10.6715 70.0098 10.5439 69.4902 10.5439C68.9889 10.5439 68.5993 10.651 68.3213 10.8652C68.0433 11.0749 67.9043 11.3529 67.9043 11.6992C67.9043 12.0228 68.0661 12.2939 68.3896 12.5127C68.7178 12.7314 69.1986 12.9365 69.832 13.1279C70.9987 13.4788 71.8486 13.9141 72.3818 14.4336C72.915 14.9531 73.1816 15.6003 73.1816 16.375C73.1816 17.2363 72.8558 17.9131 72.2041 18.4053C71.5524 18.8929 70.6751 19.1367 69.5723 19.1367C68.8066 19.1367 68.1094 18.9977 67.4805 18.7197C66.8516 18.4372 66.3708 18.0521 66.0381 17.5645C65.71 17.0768 65.5459 16.5117 65.5459 15.8691H67.6035C67.6035 16.9674 68.2598 17.5166 69.5723 17.5166C70.0599 17.5166 70.4404 17.4186 70.7139 17.2227C70.9873 17.0221 71.124 16.7441 71.124 16.3887Z" fill="white"/>
</svg>
