<svg width="80" height="28" viewBox="0 0 80 28" fill="none" xmlns="http://www.w3.org/2000/svg">
  <g clip-path="url(#clip0)">
    <path d="M80.1857 0H0V28H80.1857V0Z" fill="#FC4D50"/>
    <path d="M69.3958 15.7444V15.1854L68.0016 12.9538H67.5212L66.7601 14.779L66.0125 13.2075H65.595L64.3265 16.1979V13.3624H63.4644V13.6139H62.8066V14.4872H63.4644V17.0106C63.4644 17.1184 63.5072 17.2217 63.5835 17.2979C63.6597 17.3741 63.763 17.4169 63.8708 17.4169H64.3018V20.2008H65.1819V18.9413C65.1942 18.5951 65.3425 18.2678 65.5947 18.0303C65.8469 17.7928 66.1826 17.6644 66.5289 17.6729C67.7502 17.6729 68.7402 18.5978 68.7402 19.7383V20.203H69.3823V17.7043H70.0424V16.3236L69.3958 15.7444Z" fill="white"/>
    <path d="M31.5335 14.0157C31.4593 14.876 31.2502 15.7192 30.9139 16.5144C30.6049 17.2551 30.173 17.9382 29.6364 18.535C29.1113 19.1057 28.4759 19.5639 27.7686 19.882C27.0383 20.2136 26.2448 20.3828 25.4427 20.3781C24.4272 20.4118 23.4279 20.1166 22.5938 19.5362C21.8005 18.9633 21.2019 18.161 20.8786 17.2373C20.5198 16.2038 20.3986 15.1026 20.5239 14.0157C20.6166 12.8818 20.9495 11.7805 21.5005 10.7851C22.0113 9.85808 22.748 9.07506 23.6422 8.50866C24.5289 7.94792 25.5588 7.65554 26.6079 7.66677C27.6098 7.64177 28.5935 7.93666 29.4164 8.50866C30.2086 9.07626 30.8111 9.86965 31.1451 10.7851C31.5202 11.818 31.6501 12.924 31.5245 14.0157H31.5335ZM29.293 13.9192C29.3622 13.2873 29.298 12.6478 29.1044 12.0423C28.917 11.466 28.5669 10.9561 28.0964 10.5741C27.6196 10.1881 27.0214 9.98369 26.4081 9.99711C25.7635 9.99473 25.1347 10.1967 24.6121 10.5741C24.0739 10.9512 23.6374 11.4556 23.3414 12.0423C23.0397 12.6294 22.853 13.2687 22.7914 13.9259C22.7723 14.3051 22.7723 14.685 22.7914 15.0641C22.8109 15.4492 22.8935 15.8284 23.0361 16.1867C23.167 16.5308 23.3454 16.8549 23.5659 17.1498C23.7938 17.4415 24.0898 17.6727 24.428 17.8233C24.8162 17.9993 25.2388 18.0867 25.665 18.0792C26.2056 18.0864 26.7393 17.9567 27.2163 17.7021C27.6664 17.4646 28.0517 17.1209 28.3388 16.7008C28.6216 16.289 28.8481 15.8412 29.0123 15.3695C29.1737 14.9035 29.277 14.4194 29.3199 13.9282L29.293 13.9192ZM43.5332 14.0247C43.4608 14.885 43.2524 15.7284 42.9158 16.5234C42.6058 17.2635 42.174 17.9465 41.6384 18.5439C41.1133 19.1146 40.4778 19.5729 39.7705 19.891C39.0402 20.2225 38.2467 20.3918 37.4447 20.3871C36.4304 20.4143 35.4344 20.1135 34.6047 19.5295C33.8108 18.9572 33.212 18.1546 32.8895 17.2306C32.5289 16.1974 32.4068 15.096 32.5325 14.009C32.626 12.8749 32.9596 11.7736 33.5114 10.7784C34.0222 9.85135 34.7589 9.06832 35.6531 8.50193C36.5391 7.94148 37.5682 7.64912 38.6166 7.66004C39.6192 7.63455 40.6038 7.92947 41.4273 8.50193C42.2189 9.07013 42.8212 9.86332 43.156 10.7784C43.5314 11.8112 43.6606 12.9174 43.5332 14.009V14.0247ZM41.3016 13.9124C41.3675 13.2774 41.2986 12.6355 41.0996 12.0289C40.911 11.4531 40.5611 10.9435 40.0915 10.5606C39.6138 10.1748 39.015 9.97046 38.401 9.98364C37.7565 9.98188 37.1279 10.1838 36.605 10.5606C36.0674 10.9384 35.631 11.4426 35.3343 12.0289C35.0333 12.6161 34.8474 13.2554 34.7865 13.9124C34.7652 14.2916 34.7652 14.6716 34.7865 15.0507C34.8064 15.4355 34.8882 15.8145 35.029 16.1732C35.1608 16.5174 35.3398 16.8415 35.5611 17.1363C35.7886 17.4275 36.0838 17.6587 36.4209 17.8098C36.81 17.9858 37.2332 18.0732 37.6602 18.0658C38.2001 18.0732 38.7331 17.9434 39.2093 17.6886C39.6596 17.4515 40.045 17.1077 40.3318 16.6873C40.6145 16.2755 40.841 15.8278 41.0053 15.356C41.1659 14.8899 41.2684 14.4058 41.3106 13.9147L41.3016 13.9124ZM48.8651 9.94548L47.7898 20.2053H45.3539L46.4293 9.94548H43.9373L44.1618 7.84862H51.5547L51.3302 9.94548H48.8651ZM54.5563 12.9561H58.5367L59.071 7.84862H61.4799L60.189 20.1963H57.7801L58.3302 14.9137H54.3228L53.7728 20.1963H51.3638L52.6547 7.84862H55.0636L54.5563 12.9561ZM15.7712 7.85311C16.9745 7.85311 17.8635 8.11802 18.445 8.64785C19.0264 9.17768 19.2532 10.0308 19.1185 11.2117C19.0681 11.6957 18.9264 12.1657 18.7009 12.5969C18.4982 13.0128 18.1812 13.3624 17.7872 13.6049C18.2201 13.6817 18.615 13.9005 18.9097 14.2268C19.1996 14.5444 19.4036 14.9307 19.5024 15.3493C19.6016 15.7911 19.6259 16.2464 19.5742 16.6963C19.4485 17.8547 18.992 18.7295 18.2048 19.3207C17.3456 19.9322 16.3087 20.2431 15.2548 20.2053H10.1294L11.4203 7.8576L15.7712 7.85311ZM13.1041 14.8329L12.7471 18.2745H14.606C14.9023 18.2745 15.1538 18.2745 15.3603 18.2498C15.583 18.2313 15.8029 18.1876 16.0159 18.1196C16.2247 18.0599 16.42 17.96 16.5906 17.8255C16.7562 17.6798 16.8893 17.5008 16.9812 17.3002C17.0975 17.0488 17.1732 16.7805 17.2057 16.5055C17.2364 16.2399 17.208 15.9708 17.1227 15.7174C17.0577 15.5272 16.9467 15.3559 16.7994 15.2191C16.6355 15.0886 16.4432 14.9987 16.2381 14.9564C16.0262 14.9018 15.8098 14.8664 15.5915 14.8509C15.4052 14.8509 15.1605 14.8329 14.8552 14.8329H13.1041ZM13.6384 9.79731L13.3016 13.0099H14.9472C15.5594 13.0099 16.0151 12.8925 16.3144 12.6575C16.613 12.433 16.7949 11.9997 16.8622 11.3868C16.9296 10.7739 16.8241 10.3855 16.5502 10.1498C16.2763 9.91405 15.8587 9.79731 15.3019 9.79731H13.6384Z" fill="white"/>
  </g>
  <defs>
    <clipPath id="clip0">
      <rect width="80" height="28" fill="white"/>
    </clipPath>
  </defs>
</svg>
