<svg width="147" height="28" viewBox="0 0 147 28" fill="none" xmlns="http://www.w3.org/2000/svg">
<path fill-rule="evenodd" clip-rule="evenodd" d="M141.923 23.135L139.298 16.8618L136.697 23.135H132.219L136.884 13.1895L132.588 4.15554H137.07L139.403 9.91811L141.761 4.15554H146.159L141.842 13.1633L146.559 23.135H141.923ZM127.845 13.5904C127.849 12.8229 127.787 12.0564 127.659 11.2997C127.555 10.6659 127.37 10.0483 127.107 9.46236C126.903 8.99395 126.597 8.57727 126.21 8.24303C125.857 7.94904 125.41 7.79231 124.95 7.80159C124.487 7.79434 124.036 7.95064 123.676 8.24303C123.284 8.57507 122.972 8.99204 122.765 9.46236C122.503 10.0475 122.324 10.6657 122.23 11.2997C122.11 12.0572 122.051 12.8234 122.056 13.5904C122.052 14.3622 122.11 15.1331 122.23 15.8954C122.323 16.5342 122.503 17.1572 122.765 17.7471C122.974 18.2197 123.285 18.6402 123.676 18.9783C124.032 19.2789 124.485 19.4407 124.95 19.4341C125.412 19.4423 125.861 19.28 126.21 18.9783C126.595 18.638 126.901 18.2179 127.107 17.7471C127.371 17.1566 127.556 16.534 127.659 15.8954C127.787 15.1339 127.849 14.3627 127.845 13.5904V13.5904ZM132.242 13.5904C132.257 14.9791 132.085 16.3635 131.732 17.7065C131.441 18.8424 130.952 19.9177 130.286 20.8825C129.691 21.7313 128.905 22.4291 127.993 22.9203C127.049 23.3957 126.007 23.6433 124.95 23.6433C123.894 23.6433 122.852 23.3957 121.908 22.9203C120.996 22.4281 120.211 21.7304 119.615 20.8825C118.949 19.9177 118.459 18.8424 118.169 17.7065C117.493 15.0144 117.488 12.1974 118.155 9.50292C118.439 8.3799 118.924 7.3176 119.586 6.36751C120.186 5.50674 120.99 4.80772 121.925 4.33269C122.861 3.85766 123.899 3.62139 124.948 3.64491C126.005 3.63078 127.05 3.8766 127.99 4.36076C128.902 4.84213 129.687 5.5312 130.283 6.37229C130.948 7.3231 131.438 8.38486 131.729 9.50769C132.085 10.8391 132.257 12.2126 132.242 13.5904ZM112.266 17.3295C112.276 16.9575 112.208 16.5874 112.065 16.2438C111.943 15.9674 111.759 15.7225 111.528 15.528C111.308 15.3411 111.054 15.1993 110.779 15.1104C110.515 15.0237 110.239 14.9786 109.961 14.9768H108.407V19.5892H110.015C110.601 19.5968 111.169 19.3868 111.609 18.9998C112.048 18.63 112.266 18.0668 112.266 17.3295ZM111.917 9.74393C111.917 9.00899 111.712 8.4904 111.302 8.18815C110.881 7.88257 110.373 7.72255 109.853 7.7324H108.407V11.8342H109.882C110.391 11.8375 110.886 11.6694 111.287 11.357C111.707 11.0245 111.917 10.4828 111.917 9.73199V9.74393ZM116.341 17.7304C116.37 18.6103 116.2 19.4853 115.845 20.2907C115.548 20.9417 115.103 21.5139 114.544 21.961C114.008 22.3815 113.393 22.6913 112.736 22.8726C112.077 23.0578 111.396 23.1525 110.712 23.1541H104.413V4.15554H110.106C110.736 4.15934 111.365 4.22165 111.984 4.34166C112.627 4.46195 113.241 4.70499 113.793 5.05751C114.364 5.43323 114.834 5.9448 115.16 6.54647C115.556 7.3152 115.745 8.17369 115.709 9.03762C115.709 10.1639 115.481 11.0627 115.026 11.734C114.614 12.3648 114.036 12.87 113.356 13.1943V13.2468C113.737 13.3463 114.099 13.5075 114.427 13.724C114.797 13.9681 115.124 14.2722 115.394 14.6236C115.697 15.0247 115.933 15.4729 116.091 15.9503C116.272 16.5217 116.356 17.1193 116.341 17.7185V17.7304ZM97.0132 23.147L92.6179 11.5932H92.5368L92.6442 23.147H88.8048V4.15554H93.5247L97.8937 15.8692H97.9748L97.8937 4.15554H101.592V23.135L97.0132 23.147ZM80.0166 8.29553H79.9092L78.301 16.3631H81.5438L80.0166 8.29553ZM82.8585 23.147L82.0806 19.687H77.8142L77.0363 23.147H72.7412L77.3513 4.16748H82.7392L87.323 23.147H82.8585ZM68.1407 8.05452V11.9153H72.6744V15.5876H68.1622V23.147H63.8146V4.15554H73.0634V8.0426L68.1407 8.05452ZM52.6307 23.147H47.1736L42.5897 4.16748H47.4408L50.0155 18.0454H50.068L52.6164 4.16031H57.2789L52.6307 23.147ZM36.6267 23.147V4.15554H40.9409V23.135L36.6267 23.147ZM30.2461 23.147L27.6214 16.8738L25.0205 23.147H20.5273L25.1923 13.2015L20.8972 4.16748H25.3736L27.7073 9.93004L30.0648 4.16748H34.4649L30.1483 13.1752L34.8657 23.147H30.2461ZM14.4569 23.147V4.15554H18.7735V23.135L14.4569 23.147ZM8.15749 10.1997C8.15749 9.34066 7.95228 8.72503 7.53947 8.34802C7.13061 7.97362 6.59281 7.77184 6.03858 7.78489H4.67131V12.7457H6.03858C6.31935 12.7462 6.59703 12.6871 6.85328 12.5723C7.10954 12.4576 7.33853 12.2898 7.52515 12.08C7.93876 11.6393 8.14476 11.0086 8.14317 10.1878L8.15749 10.1997ZM12.1782 10.1186C12.202 11.0527 12.0398 11.9822 11.7009 12.8531C11.4136 13.5746 10.9741 14.2257 10.4124 14.762C9.88891 15.2551 9.26903 15.6345 8.59177 15.8763C7.92951 16.1139 7.23132 16.2358 6.52774 16.2367H4.67608V23.1565H0.450195V4.15554H6.34639C7.04073 4.15769 7.73138 4.25648 8.39849 4.44904C9.08334 4.64507 9.72136 4.97787 10.274 5.42736C10.8676 5.92405 11.336 6.55346 11.6413 7.26471C12.0149 8.16427 12.193 9.13298 12.1638 10.1066L12.1782 10.1186Z" fill="black"/>
</svg>
