<svg width="101" height="28" viewBox="0 0 101 28" fill="none" xmlns="http://www.w3.org/2000/svg">
  <rect width="101" height="28" fill="#313131"/>
  <path d="M14.9395 17.3525H19.2939V19H12.8887V9.04688H14.9395V17.3525ZM22.6572 19H20.6064V9.04688H22.6572V19ZM32.6582 19H30.6074L26.6152 12.4512V19H24.5645V9.04688H26.6152L30.6143 15.6094V9.04688H32.6582V19ZM40.4375 14.6865H36.5V17.3525H41.1211V19H34.4492V9.04688H41.1074V10.708H36.5V13.0801H40.4375V14.6865Z" fill="#00B800"/>
  <path d="M50.9717 16.3887C50.9717 16.0013 50.835 15.7051 50.5615 15.5C50.2881 15.2904 49.7959 15.0716 49.085 14.8438C48.374 14.6113 47.8112 14.3835 47.3965 14.1602C46.2663 13.5495 45.7012 12.7269 45.7012 11.6924C45.7012 11.1546 45.8516 10.6761 46.1523 10.2568C46.4577 9.83301 46.8929 9.5026 47.458 9.26562C48.0277 9.02865 48.6657 8.91016 49.3721 8.91016C50.083 8.91016 50.7165 9.04004 51.2725 9.2998C51.8285 9.55501 52.2591 9.91732 52.5645 10.3867C52.8743 10.8561 53.0293 11.3893 53.0293 11.9863H50.9785C50.9785 11.5306 50.835 11.1774 50.5479 10.9268C50.2607 10.6715 49.8574 10.5439 49.3379 10.5439C48.8366 10.5439 48.4469 10.651 48.1689 10.8652C47.891 11.0749 47.752 11.3529 47.752 11.6992C47.752 12.0228 47.9137 12.2939 48.2373 12.5127C48.5654 12.7314 49.0462 12.9365 49.6797 13.1279C50.8464 13.4788 51.6963 13.9141 52.2295 14.4336C52.7627 14.9531 53.0293 15.6003 53.0293 16.375C53.0293 17.2363 52.7035 17.9131 52.0518 18.4053C51.4001 18.8929 50.5228 19.1367 49.4199 19.1367C48.6543 19.1367 47.957 18.9977 47.3281 18.7197C46.6992 18.4372 46.2184 18.0521 45.8857 17.5645C45.5576 17.0768 45.3936 16.5117 45.3936 15.8691H47.4512C47.4512 16.9674 48.1074 17.5166 49.4199 17.5166C49.9076 17.5166 50.2881 17.4186 50.5615 17.2227C50.835 17.0221 50.9717 16.7441 50.9717 16.3887ZM61.916 10.708H58.8672V19H56.8164V10.708H53.8086V9.04688H61.916V10.708ZM71.0762 14.249C71.0762 15.2288 70.903 16.0879 70.5566 16.8262C70.2103 17.5645 69.7135 18.1341 69.0664 18.5352C68.4238 18.9362 67.6855 19.1367 66.8516 19.1367C66.0267 19.1367 65.2907 18.9385 64.6436 18.542C63.9964 18.1455 63.4951 17.5804 63.1396 16.8467C62.7842 16.1084 62.6042 15.2607 62.5996 14.3037V13.8115C62.5996 12.8317 62.7751 11.9704 63.126 11.2275C63.4814 10.4801 63.9805 9.9082 64.623 9.51172C65.2702 9.11068 66.0085 8.91016 66.8379 8.91016C67.6673 8.91016 68.4033 9.11068 69.0459 9.51172C69.693 9.9082 70.1921 10.4801 70.543 11.2275C70.8984 11.9704 71.0762 12.8294 71.0762 13.8047V14.249ZM68.998 13.7979C68.998 12.7542 68.8112 11.9613 68.4375 11.4189C68.0638 10.8766 67.5306 10.6055 66.8379 10.6055C66.1497 10.6055 65.6188 10.8743 65.2451 11.4121C64.8714 11.9453 64.6823 12.7292 64.6777 13.7637V14.249C64.6777 15.2653 64.8646 16.0537 65.2383 16.6143C65.612 17.1748 66.1497 17.4551 66.8516 17.4551C67.5397 17.4551 68.0684 17.1862 68.4375 16.6484C68.8066 16.1061 68.9935 15.3177 68.998 14.2832V13.7979ZM76.251 15.3564H74.6172V19H72.5664V9.04688H76.2646C77.4404 9.04688 78.3473 9.30892 78.9854 9.83301C79.6234 10.3571 79.9424 11.0977 79.9424 12.0547C79.9424 12.7337 79.7943 13.3011 79.498 13.7568C79.2064 14.208 78.762 14.568 78.165 14.8369L80.3184 18.9043V19H78.1172L76.251 15.3564ZM74.6172 13.6953H76.2715C76.7865 13.6953 77.1852 13.5654 77.4678 13.3057C77.7503 13.0413 77.8916 12.679 77.8916 12.2188C77.8916 11.7493 77.7572 11.3802 77.4883 11.1113C77.224 10.8424 76.8161 10.708 76.2646 10.708H74.6172V13.6953ZM87.4961 14.6865H83.5586V17.3525H88.1797V19H81.5078V9.04688H88.166V10.708H83.5586V13.0801H87.4961V14.6865Z" fill="white"/>
</svg>
