<svg width="151" height="28" viewBox="0 0 151 28" fill="none" xmlns="http://www.w3.org/2000/svg">
  <rect width="151" height="28" fill="url(#paint0_linear)"/>
  <path d="M16.5732 15.3564H14.9395V19H12.8887V9.04688H16.5869C17.7627 9.04688 18.6696 9.30892 19.3076 9.83301C19.9456 10.3571 20.2646 11.0977 20.2646 12.0547C20.2646 12.7337 20.1165 13.3011 19.8203 13.7568C19.5286 14.208 19.0843 14.568 18.4873 14.8369L20.6406 18.9043V19H18.4395L16.5732 15.3564ZM14.9395 13.6953H16.5938C17.1087 13.6953 17.5075 13.5654 17.79 13.3057C18.0726 13.0413 18.2139 12.679 18.2139 12.2188C18.2139 11.7493 18.0794 11.3802 17.8105 11.1113C17.5462 10.8424 17.1383 10.708 16.5869 10.708H14.9395V13.6953Z" fill="white"/>
  <path d="M27.8184 14.6865H23.8809V17.3525H28.502V19H21.8301V9.04688H28.4883V10.708H23.8809V13.0801H27.8184V14.6865Z" fill="white"/>
  <path d="M31.7559 17.3525H36.1104V19H29.7051V9.04688H31.7559V17.3525Z" fill="white"/>
  <path d="M43.0488 16.9492H39.4531L38.7695 19H36.5889L40.2939 9.04688H42.1943L45.9199 19H43.7393L43.0488 16.9492ZM40.0068 15.2881H42.4951L41.2441 11.5625L40.0068 15.2881Z" fill="white"/>
  <path d="M53.5215 10.708H50.4727V19H48.4219V10.708H45.4141V9.04688H53.5215V10.708Z" fill="white"/>
  <path d="M60.6855 14.6865H56.748V17.3525H61.3691V19H54.6973V9.04688H61.3555V10.708H56.748V13.0801H60.6855V14.6865Z" fill="white"/>
  <path d="M62.5723 19V9.04688H65.6348C66.5098 9.04688 67.2913 9.24512 67.9795 9.6416C68.6722 10.0335 69.2122 10.5941 69.5996 11.3232C69.987 12.0479 70.1807 12.8727 70.1807 13.7979V14.2559C70.1807 15.181 69.9893 16.0036 69.6064 16.7236C69.2282 17.4437 68.6927 18.002 68 18.3984C67.3073 18.7949 66.5257 18.9954 65.6553 19H62.5723ZM64.623 10.708V17.3525H65.6143C66.4163 17.3525 67.0293 17.0905 67.4531 16.5664C67.877 16.0423 68.0934 15.2926 68.1025 14.3174V13.791C68.1025 12.7793 67.8929 12.0137 67.4736 11.4941C67.0544 10.9701 66.4414 10.708 65.6348 10.708H64.623Z" fill="white"/>
  <path d="M80.3252 16.3887C80.3252 16.0013 80.1885 15.7051 79.915 15.5C79.6416 15.2904 79.1494 15.0716 78.4385 14.8438C77.7275 14.6113 77.1647 14.3835 76.75 14.1602C75.6198 13.5495 75.0547 12.7269 75.0547 11.6924C75.0547 11.1546 75.2051 10.6761 75.5059 10.2568C75.8112 9.83301 76.2464 9.5026 76.8115 9.26562C77.3812 9.02865 78.0192 8.91016 78.7256 8.91016C79.4365 8.91016 80.07 9.04004 80.626 9.2998C81.182 9.55501 81.6126 9.91732 81.918 10.3867C82.2279 10.8561 82.3828 11.3893 82.3828 11.9863H80.332C80.332 11.5306 80.1885 11.1774 79.9014 10.9268C79.6143 10.6715 79.2109 10.5439 78.6914 10.5439C78.1901 10.5439 77.8005 10.651 77.5225 10.8652C77.2445 11.0749 77.1055 11.3529 77.1055 11.6992C77.1055 12.0228 77.2673 12.2939 77.5908 12.5127C77.9189 12.7314 78.3997 12.9365 79.0332 13.1279C80.1999 13.4788 81.0498 13.9141 81.583 14.4336C82.1162 14.9531 82.3828 15.6003 82.3828 16.375C82.3828 17.2363 82.057 17.9131 81.4053 18.4053C80.7536 18.8929 79.8763 19.1367 78.7734 19.1367C78.0078 19.1367 77.3105 18.9977 76.6816 18.7197C76.0527 18.4372 75.5719 18.0521 75.2393 17.5645C74.9111 17.0768 74.7471 16.5117 74.7471 15.8691H76.8047C76.8047 16.9674 77.4609 17.5166 78.7734 17.5166C79.2611 17.5166 79.6416 17.4186 79.915 17.2227C80.1885 17.0221 80.3252 16.7441 80.3252 16.3887Z" fill="white"/>
  <path d="M89.7656 14.6865H85.8281V17.3525H90.4492V19H83.7773V9.04688H90.4355V10.708H85.8281V13.0801H89.7656V14.6865Z" fill="white"/>
  <path d="M95.3369 15.3564H93.7031V19H91.6523V9.04688H95.3506C96.5264 9.04688 97.4333 9.30892 98.0713 9.83301C98.7093 10.3571 99.0283 11.0977 99.0283 12.0547C99.0283 12.7337 98.8802 13.3011 98.584 13.7568C98.2923 14.208 97.848 14.568 97.251 14.8369L99.4043 18.9043V19H97.2031L95.3369 15.3564ZM93.7031 13.6953H95.3574C95.8724 13.6953 96.2712 13.5654 96.5537 13.3057C96.8363 13.0413 96.9775 12.679 96.9775 12.2188C96.9775 11.7493 96.8431 11.3802 96.5742 11.1113C96.3099 10.8424 95.902 10.708 95.3506 10.708H93.7031V13.6953Z" fill="white"/>
  <path d="M104.135 16.5322L106.391 9.04688H108.674L105.208 19H103.068L99.6162 9.04688H101.893L104.135 16.5322Z" fill="white"/>
  <path d="M111.798 19H109.747V9.04688H111.798V19Z" fill="white"/>
  <path d="M121.519 15.6846C121.441 16.7555 121.045 17.5986 120.329 18.2139C119.618 18.8291 118.679 19.1367 117.513 19.1367C116.237 19.1367 115.232 18.7083 114.498 17.8516C113.769 16.9902 113.404 15.8099 113.404 14.3105V13.7021C113.404 12.7451 113.573 11.902 113.91 11.1729C114.247 10.4437 114.728 9.88542 115.353 9.49805C115.981 9.10612 116.711 8.91016 117.54 8.91016C118.688 8.91016 119.614 9.21777 120.315 9.83301C121.017 10.4482 121.423 11.3118 121.532 12.4238H119.481C119.431 11.7812 119.251 11.3164 118.941 11.0293C118.636 10.7376 118.169 10.5918 117.54 10.5918C116.856 10.5918 116.344 10.8379 116.002 11.3301C115.665 11.8177 115.492 12.5765 115.482 13.6064V14.3584C115.482 15.4339 115.644 16.2201 115.968 16.7168C116.296 17.2135 116.811 17.4619 117.513 17.4619C118.146 17.4619 118.618 17.3184 118.928 17.0312C119.242 16.7396 119.422 16.2907 119.468 15.6846H121.519Z" fill="white"/>
  <path d="M128.854 14.6865H124.916V17.3525H129.537V19H122.865V9.04688H129.523V10.708H124.916V13.0801H128.854V14.6865Z" fill="white"/>
  <path d="M135.901 16.3887C135.901 16.0013 135.765 15.7051 135.491 15.5C135.218 15.2904 134.726 15.0716 134.015 14.8438C133.304 14.6113 132.741 14.3835 132.326 14.1602C131.196 13.5495 130.631 12.7269 130.631 11.6924C130.631 11.1546 130.781 10.6761 131.082 10.2568C131.387 9.83301 131.823 9.5026 132.388 9.26562C132.957 9.02865 133.595 8.91016 134.302 8.91016C135.013 8.91016 135.646 9.04004 136.202 9.2998C136.758 9.55501 137.189 9.91732 137.494 10.3867C137.804 10.8561 137.959 11.3893 137.959 11.9863H135.908C135.908 11.5306 135.765 11.1774 135.478 10.9268C135.19 10.6715 134.787 10.5439 134.268 10.5439C133.766 10.5439 133.377 10.651 133.099 10.8652C132.821 11.0749 132.682 11.3529 132.682 11.6992C132.682 12.0228 132.843 12.2939 133.167 12.5127C133.495 12.7314 133.976 12.9365 134.609 13.1279C135.776 13.4788 136.626 13.9141 137.159 14.4336C137.692 14.9531 137.959 15.6003 137.959 16.375C137.959 17.2363 137.633 17.9131 136.981 18.4053C136.33 18.8929 135.452 19.1367 134.35 19.1367C133.584 19.1367 132.887 18.9977 132.258 18.7197C131.629 18.4372 131.148 18.0521 130.815 17.5645C130.487 17.0768 130.323 16.5117 130.323 15.8691H132.381C132.381 16.9674 133.037 17.5166 134.35 17.5166C134.837 17.5166 135.218 17.4186 135.491 17.2227C135.765 17.0221 135.901 16.7441 135.901 16.3887Z" fill="white"/>
  <defs>
    <linearGradient id="paint0_linear" x1="0" y1="0" x2="151" y2="28" gradientUnits="userSpaceOnUse">
      <stop stop-color="#FF91BE"/>
      <stop offset="1" stop-color="#91C3FF"/>
    </linearGradient>
  </defs>
</svg>
