<svg width="79" height="20" viewBox="0 0 79 20" fill="none" xmlns="http://www.w3.org/2000/svg">
<rect width="79" height="20" rx="4" fill="#00B900"/>
<path d="M21.8433 14V6.19043H23.4331V12.6733H27.3862V14H21.8433ZM28.2566 14V6.12598H29.8464V14H28.2566ZM31.1625 14V6.12598H32.7094L35.9321 11.3843V6.12598H37.4091V14H35.8139L32.6396 8.86523V14H31.1625ZM38.8756 14V6.12598H44.714V7.45801H40.4655V9.20361H44.4186V10.5303H40.4655V12.6733H44.8644V14H38.8756Z" fill="white"/>
<path d="M46.7703 7.53445L46.858 8.3827C47.911 8.15845 50.3973 7.92445 51.4405 7.80745C50.5435 8.3437 49.6173 9.58195 49.6173 11.103C49.6173 13.2772 51.6745 14.2425 53.4783 14.3107L53.761 13.5015C52.1718 13.443 50.3973 12.8385 50.3973 10.9372C50.3973 9.77695 51.2455 8.29495 52.63 7.84645C53.1273 7.7002 53.9853 7.69045 54.541 7.69045V6.91045C53.8878 6.9397 52.9713 6.9982 51.9085 7.08595C50.1145 7.2322 48.2718 7.41745 47.638 7.4857C47.4528 7.5052 47.1408 7.5247 46.7703 7.53445ZM53.137 8.8897L52.6398 9.1042C52.9323 9.50395 53.215 10.011 53.4393 10.479L53.9365 10.245C53.7318 9.81595 53.3613 9.21145 53.137 8.8897ZM54.1998 8.4802L53.722 8.70445C54.0243 9.11395 54.307 9.5917 54.541 10.0695L55.048 9.8257C54.8238 9.3967 54.4338 8.80195 54.1998 8.4802ZM63.2185 5.7892C63.0235 6.2767 62.6238 6.9787 62.3118 7.4272L62.9065 7.6417C63.2283 7.2322 63.6183 6.5887 63.9595 6.03295L63.2185 5.7892ZM64.7785 10.2937V9.64045H61.9803C61.99 9.5527 61.99 9.46495 61.99 9.3772V8.2852H64.486V7.6417H60.2838L60.8688 7.37845C60.7323 6.9397 60.3618 6.2962 59.9815 5.8282L59.3673 6.07195C59.728 6.5497 60.0888 7.20295 60.2058 7.6417H58.987V8.2852H61.2685V9.36745C61.2685 9.4552 61.2685 9.54295 61.2588 9.64045H58.675V10.2937H61.1808C61.0053 11.1322 60.4398 12.0585 58.753 12.741C58.909 12.8775 59.1333 13.131 59.2308 13.2772C60.781 12.585 61.4733 11.688 61.7755 10.8105C62.2533 12.0487 63.0723 12.8775 64.3398 13.3162C64.4373 13.131 64.6323 12.858 64.798 12.7117C63.4915 12.3412 62.6628 11.5125 62.2533 10.2937H64.7785ZM58.402 7.53445C58.0705 7.06645 57.3295 6.44245 56.7055 6.03295L56.1693 6.4717C56.803 6.9007 57.5245 7.5442 57.8268 8.0122L58.402 7.53445ZM58.129 9.6112H56.062V10.2937H57.4173V12.7605C56.9298 13.17 56.3838 13.5795 55.9353 13.872L56.3253 14.6032C56.842 14.184 57.3295 13.7647 57.7975 13.3552C58.4215 14.106 59.2893 14.457 60.5568 14.5057C61.6293 14.5447 63.628 14.5252 64.6908 14.4862C64.72 14.262 64.8468 13.9207 64.9248 13.7452C63.784 13.8232 61.6195 13.8525 60.5568 13.8135C59.4355 13.7647 58.5873 13.4332 58.129 12.7215V9.6112ZM68.6785 12.9262C68.6785 12.585 69.0198 12.3022 69.4585 12.3022C70.1995 12.3022 70.687 12.858 70.765 13.6282C70.5213 13.6672 70.258 13.6867 69.9753 13.6867C69.2148 13.6867 68.6785 13.3942 68.6785 12.9262ZM67.4305 6.7642L67.4598 7.57345C67.6645 7.5442 67.8888 7.5247 68.1033 7.51495C68.62 7.4857 70.57 7.39795 71.0868 7.37845C70.5895 7.8172 69.3708 8.84095 68.8248 9.28945C68.2593 9.7672 67.0113 10.8105 66.202 11.4735L66.7578 12.0487C67.996 10.791 68.8638 10.0987 70.492 10.0987C71.7595 10.0987 72.676 10.8202 72.676 11.7757C72.676 12.5752 72.2373 13.1407 71.4573 13.443C71.3403 12.5167 70.687 11.7172 69.4683 11.7172C68.5615 11.7172 67.9668 12.312 67.9668 12.9847C67.9668 13.794 68.776 14.3692 70.102 14.3692C72.169 14.3692 73.456 13.3552 73.456 11.7855C73.456 10.4692 72.2958 9.4942 70.6773 9.4942C70.2385 9.4942 69.7705 9.54295 69.322 9.69895C70.0825 9.0652 71.4085 7.9342 71.896 7.5637C72.0715 7.41745 72.2665 7.2907 72.442 7.16395L71.9935 6.59845C71.896 6.6277 71.7595 6.65695 71.467 6.67645C70.9503 6.7252 68.6298 6.8032 68.1228 6.8032C67.9278 6.8032 67.6548 6.79345 67.4305 6.7642Z" fill="white"/>
<path d="M17.6933 8.96187C17.6933 5.67448 14.3977 3 10.3466 3C6.29599 3 3 5.67448 3 8.96187C3 11.909 5.61364 14.3772 9.14411 14.8439C9.38339 14.8954 9.70901 15.0016 9.7914 15.2061C9.86548 15.3919 9.83984 15.6829 9.81506 15.8704C9.81506 15.8704 9.72887 16.3889 9.71028 16.4993C9.67831 16.685 9.56268 17.2257 10.3466 16.8953C11.1307 16.5649 14.5776 14.4041 16.1189 12.6299H16.1186C17.1833 11.4624 17.6933 10.2776 17.6933 8.96187Z" fill="white"/>
<path d="M8.85398 7.37329H8.33866C8.25966 7.37329 8.19543 7.43737 8.19543 7.5161V10.7173C8.19543 10.7962 8.25966 10.8601 8.33866 10.8601H8.85398C8.93299 10.8601 8.99707 10.7962 8.99707 10.7173V7.5161C8.99707 7.43737 8.93299 7.37329 8.85398 7.37329Z" fill="#00B900"/>
<path d="M12.4008 7.37329H11.8855C11.8065 7.37329 11.7424 7.43737 11.7424 7.5161V9.41795L10.2755 7.43681C10.2721 7.43174 10.2683 7.42695 10.2644 7.4223L10.2634 7.42145C10.2606 7.41821 10.2577 7.4154 10.2548 7.41258C10.2539 7.41174 10.2531 7.41103 10.2521 7.41019C10.2497 7.40793 10.2472 7.40582 10.2445 7.40385C10.2434 7.40272 10.2421 7.40188 10.2408 7.40089C10.2383 7.3992 10.2359 7.39737 10.2334 7.39582C10.232 7.39484 10.2306 7.39399 10.229 7.39329C10.2265 7.39174 10.2239 7.39019 10.2214 7.38892C10.2199 7.38822 10.2184 7.38737 10.2169 7.38681C10.2142 7.38554 10.2115 7.38427 10.2087 7.38329C10.207 7.38272 10.2056 7.38216 10.2041 7.3816C10.2013 7.38061 10.1984 7.37963 10.1955 7.37892C10.1939 7.37836 10.1922 7.37808 10.1906 7.37751C10.1877 7.37695 10.1851 7.37625 10.1824 7.37568C10.1804 7.3754 10.1783 7.37512 10.1763 7.37498C10.1738 7.37441 10.1713 7.37427 10.1687 7.37399C10.1663 7.37371 10.1639 7.37371 10.1614 7.37357C10.1596 7.37357 10.1582 7.37329 10.1563 7.37329H9.64116C9.56215 7.37329 9.49792 7.43737 9.49792 7.5161V10.7173C9.49792 10.7962 9.56215 10.8601 9.64116 10.8601H10.1563C10.2355 10.8601 10.2996 10.7962 10.2996 10.7173V8.81601L11.7683 10.7997C11.7785 10.8141 11.791 10.8257 11.8047 10.835C11.8051 10.8353 11.8057 10.8357 11.8061 10.8362C11.809 10.838 11.812 10.8398 11.815 10.8415C11.8164 10.8424 11.8176 10.8429 11.819 10.8436C11.8212 10.8449 11.8236 10.846 11.8258 10.847C11.8282 10.848 11.8303 10.849 11.8328 10.85C11.8343 10.8505 11.8357 10.8511 11.8371 10.8515C11.8405 10.8528 11.8435 10.8538 11.8468 10.8548C11.8475 10.8548 11.8482 10.855 11.8489 10.8552C11.8606 10.8583 11.8728 10.8601 11.8855 10.8601H12.4008C12.48 10.8601 12.5439 10.7962 12.5439 10.7173V7.5161C12.5439 7.43737 12.48 7.37329 12.4008 7.37329Z" fill="#00B900"/>
<path d="M7.61172 10.0586H6.21153V7.51636C6.21153 7.43735 6.14745 7.37327 6.06858 7.37327H5.55312C5.47411 7.37327 5.41003 7.43735 5.41003 7.51636V10.717V10.7173C5.41003 10.7557 5.42539 10.7905 5.45003 10.8161C5.4506 10.8169 5.45116 10.8176 5.452 10.8183C5.45271 10.819 5.45341 10.8195 5.45412 10.8202C5.47989 10.845 5.51453 10.8602 5.55298 10.8602H5.55312H7.61172C7.69073 10.8602 7.75453 10.796 7.75453 10.717V10.2017C7.75453 10.1227 7.69073 10.0586 7.61172 10.0586Z" fill="#00B900"/>
<path d="M15.2466 8.17491C15.3256 8.17491 15.3894 8.11097 15.3894 8.03182V7.5165C15.3894 7.43749 15.3256 7.37327 15.2466 7.37327H13.188H13.1877C13.1491 7.37327 13.1144 7.38876 13.0886 7.41369C13.088 7.41425 13.0873 7.41468 13.0869 7.41524C13.086 7.41608 13.0853 7.41693 13.0846 7.41777C13.0601 7.44341 13.0449 7.47805 13.0449 7.51636V7.5165V10.7171V10.7173C13.0449 10.7557 13.0603 10.7905 13.0849 10.8161C13.0855 10.8169 13.0862 10.8177 13.0869 10.8183C13.0875 10.819 13.0883 10.8197 13.089 10.8202C13.1146 10.8449 13.1494 10.8602 13.1877 10.8602H13.188H15.2466C15.3256 10.8602 15.3894 10.796 15.3894 10.7171V10.2017C15.3894 10.1228 15.3256 10.0586 15.2466 10.0586H13.8466V9.5175H15.2466C15.3256 9.5175 15.3894 9.45342 15.3894 9.37441V8.85909C15.3894 8.78008 15.3256 8.71586 15.2466 8.71586H13.8466V8.17491H15.2466Z" fill="#00B900"/>
</svg>
