<svg width="16" height="12" viewBox="0 0 16 12" fill="none" xmlns="http://www.w3.org/2000/svg">
  <path d="M14.9819 12C15.5918 12 16 11.544 16 10.981V2.84739C16 2.43508 15.7939 2.06338 15.4785 1.90607C15.1626 1.74771 14.7998 1.83513 14.5581 2.12662L12.9326 4.08844C12.6025 4.48637 12.0678 4.48637 11.7382 4.08844L8.59716 0.298444C8.26756 -0.0994814 7.73241 -0.0994814 7.40281 0.298444L4.26172 4.08841C3.93213 4.48634 3.39747 4.48634 3.06737 4.08841L1.44187 2.12659C1.20019 1.8351 0.836906 1.74768 0.521469 1.90604C0.206062 2.06335 0 2.43505 0 2.84739L0 10.981C0 11.544 0.409656 12 1.01953 12L14.9819 12V12Z" fill="#B4B4B4"/>
  <mask id="mask0" mask-type="alpha" maskUnits="userSpaceOnUse" x="0" y="0" width="16" height="12">
    <path d="M14.9819 12C15.5918 12 16 11.544 16 10.981V2.84739C16 2.43508 15.7939 2.06338 15.4785 1.90607C15.1626 1.74771 14.7998 1.83513 14.5581 2.12662L12.9326 4.08844C12.6025 4.48637 12.0678 4.48637 11.7382 4.08844L8.59716 0.298444C8.26756 -0.0994814 7.73241 -0.0994814 7.40281 0.298444L4.26172 4.08841C3.93213 4.48634 3.39747 4.48634 3.06737 4.08841L1.44187 2.12659C1.20019 1.8351 0.836906 1.74768 0.521469 1.90604C0.206062 2.06335 0 2.43505 0 2.84739L0 10.981C0 11.544 0.409656 12 1.01953 12L14.9819 12V12Z" fill="#B4B4B4"/>
  </mask>
  <g mask="url(#mask0)">
    <path fill-rule="evenodd" clip-rule="evenodd" d="M16.492 1.85821L13.6636 -0.970215L-0.0836792 12.777L2.74475 15.6055L16.492 1.85821ZM18.9087 2.74379L18.0601 1.89526L4.31287 15.6425L5.16139 16.4911L18.9087 2.74379Z" fill="#C8C8C8"/>
  </g>
</svg>
