<svg width="120" height="20" viewBox="0 0 120 20" fill="none" xmlns="http://www.w3.org/2000/svg">
  <rect width="120" height="20" rx="4" fill="#212528"/>
  <path d="M24 8.15V9.91H26.16C26.3333 9.91 26.4767 9.96667 26.59 10.08C26.71 10.1867 26.77 10.3267 26.77 10.5C26.77 10.6467 26.71 10.7767 26.59 10.89C26.4767 11.0033 26.3333 11.06 26.16 11.06H24V13.39C24 13.5633 23.9367 13.71 23.81 13.83C23.69 13.9433 23.5467 14 23.38 14C23.1933 14 23.04 13.9433 22.92 13.83C22.8067 13.7167 22.75 13.57 22.75 13.39V7.61C22.75 7.43667 22.8067 7.29333 22.92 7.18C23.04 7.06 23.1867 7 23.36 7H26.61C26.7833 7 26.9267 7.05667 27.04 7.17C27.16 7.27667 27.22 7.41667 27.22 7.59C27.22 7.73667 27.16 7.86667 27.04 7.98C26.9267 8.09333 26.7833 8.15 26.61 8.15H24ZM33.2588 11.33C33.2588 11.8633 33.1388 12.3433 32.8988 12.77C32.6588 13.19 32.3288 13.5167 31.9088 13.75C31.4954 13.9833 31.0388 14.1 30.5388 14.1C30.0321 14.1 29.5721 13.9833 29.1588 13.75C28.7454 13.5167 28.4188 13.19 28.1788 12.77C27.9388 12.3433 27.8188 11.8633 27.8188 11.33C27.8188 10.7967 27.9388 10.32 28.1788 9.9C28.4188 9.47333 28.7454 9.14333 29.1588 8.91C29.5721 8.67 30.0321 8.55 30.5388 8.55C31.0388 8.55 31.4954 8.67 31.9088 8.91C32.3288 9.14333 32.6588 9.47333 32.8988 9.9C33.1388 10.32 33.2588 10.7967 33.2588 11.33ZM32.0588 11.33C32.0588 11.0033 31.9888 10.7133 31.8488 10.46C31.7154 10.2 31.5321 10 31.2988 9.86C31.0721 9.72 30.8188 9.65 30.5388 9.65C30.2588 9.65 30.0021 9.72 29.7688 9.86C29.5421 10 29.3588 10.2 29.2188 10.46C29.0854 10.7133 29.0188 11.0033 29.0188 11.33C29.0188 11.6567 29.0854 11.9467 29.2188 12.2C29.3588 12.4533 29.5421 12.65 29.7688 12.79C30.0021 12.93 30.2588 13 30.5388 13C30.8188 13 31.0721 12.93 31.2988 12.79C31.5321 12.65 31.7154 12.4533 31.8488 12.2C31.9888 11.9467 32.0588 11.6567 32.0588 11.33ZM37.0413 8.55C37.2413 8.55 37.408 8.60667 37.5413 8.72C37.6813 8.83333 37.7513 8.96667 37.7513 9.12C37.7513 9.32667 37.698 9.48333 37.5913 9.59C37.4847 9.69 37.358 9.74 37.2113 9.74C37.1113 9.74 36.998 9.71667 36.8713 9.67C36.8513 9.66333 36.8047 9.65 36.7313 9.63C36.6647 9.61 36.5913 9.6 36.5113 9.6C36.338 9.6 36.1713 9.65333 36.0113 9.76C35.8513 9.86667 35.718 10.03 35.6113 10.25C35.5113 10.4633 35.4613 10.72 35.4613 11.02V13.39C35.4613 13.5633 35.4047 13.71 35.2913 13.83C35.178 13.9433 35.0347 14 34.8613 14C34.688 14 34.5447 13.9433 34.4313 13.83C34.318 13.71 34.2613 13.5633 34.2613 13.39V9.26C34.2613 9.08667 34.318 8.94333 34.4313 8.83C34.5447 8.71 34.688 8.65 34.8613 8.65C35.0347 8.65 35.178 8.71 35.2913 8.83C35.4047 8.94333 35.4613 9.08667 35.4613 9.26V9.39C35.6147 9.11667 35.8347 8.91 36.1213 8.77C36.408 8.62333 36.7147 8.55 37.0413 8.55ZM43.0473 12.95C43.1739 13.0833 43.2373 13.2333 43.2373 13.4C43.2373 13.5667 43.1706 13.7067 43.0373 13.82C42.9106 13.9333 42.7739 13.99 42.6273 13.99C42.4539 13.99 42.3073 13.9233 42.1873 13.79L40.3873 11.89L39.8973 12.34V13.39C39.8973 13.5633 39.8406 13.71 39.7273 13.83C39.6139 13.9433 39.4706 14 39.2973 14C39.1239 14 38.9806 13.9433 38.8673 13.83C38.7539 13.71 38.6973 13.5633 38.6973 13.39V7.21C38.6973 7.03667 38.7539 6.89333 38.8673 6.78C38.9806 6.66 39.1239 6.6 39.2973 6.6C39.4706 6.6 39.6139 6.66 39.7273 6.78C39.8406 6.89333 39.8973 7.03667 39.8973 7.21V10.91L42.0373 8.84C42.1639 8.71333 42.3106 8.65 42.4773 8.65C42.6239 8.65 42.7539 8.71333 42.8673 8.84C42.9873 8.96 43.0473 9.08333 43.0473 9.21C43.0473 9.37 42.9673 9.52 42.8073 9.66L41.2973 11.05L43.0473 12.95ZM53.2634 8.55C53.9234 8.55 54.38 8.75333 54.6334 9.16C54.8867 9.56 55.0134 10.1167 55.0134 10.83V13.39C55.0134 13.5633 54.9567 13.71 54.8434 13.83C54.73 13.9433 54.5867 14 54.4134 14C54.24 14 54.0967 13.9433 53.9834 13.83C53.87 13.71 53.8134 13.5633 53.8134 13.39V10.83C53.8134 10.4633 53.74 10.1767 53.5934 9.97C53.4534 9.75667 53.2034 9.65 52.8434 9.65C52.47 9.65 52.1767 9.76333 51.9634 9.99C51.7567 10.21 51.6534 10.49 51.6534 10.83V13.39C51.6534 13.5633 51.5967 13.71 51.4834 13.83C51.37 13.9433 51.2267 14 51.0534 14C50.88 14 50.7367 13.9433 50.6234 13.83C50.51 13.71 50.4534 13.5633 50.4534 13.39V10.83C50.4534 10.4633 50.38 10.1767 50.2334 9.97C50.0934 9.75667 49.8434 9.65 49.4834 9.65C49.11 9.65 48.8167 9.76333 48.6034 9.99C48.3967 10.21 48.2934 10.49 48.2934 10.83V13.39C48.2934 13.5633 48.2367 13.71 48.1234 13.83C48.01 13.9433 47.8667 14 47.6934 14C47.52 14 47.3767 13.9433 47.2634 13.83C47.15 13.71 47.0934 13.5633 47.0934 13.39V9.26C47.0934 9.08667 47.15 8.94333 47.2634 8.83C47.3767 8.71 47.52 8.65 47.6934 8.65C47.8667 8.65 48.01 8.71 48.1234 8.83C48.2367 8.94333 48.2934 9.08667 48.2934 9.26V9.42C48.4734 9.18 48.7 8.97667 48.9734 8.81C49.2534 8.63667 49.5634 8.55 49.9034 8.55C50.7434 8.55 51.28 8.91667 51.5134 9.65C51.6667 9.37 51.8967 9.11667 52.2034 8.89C52.5167 8.66333 52.87 8.55 53.2634 8.55ZM61.1121 11.2C61.1054 11.36 61.0421 11.49 60.9221 11.59C60.8021 11.69 60.6621 11.74 60.5021 11.74H57.2021C57.2821 12.1333 57.4654 12.4433 57.7521 12.67C58.0388 12.89 58.3621 13 58.7221 13C58.9954 13 59.2088 12.9767 59.3621 12.93C59.5154 12.8767 59.6354 12.8233 59.7221 12.77C59.8154 12.71 59.8788 12.67 59.9121 12.65C60.0321 12.59 60.1454 12.56 60.2521 12.56C60.3921 12.56 60.5121 12.61 60.6121 12.71C60.7121 12.81 60.7621 12.9267 60.7621 13.06C60.7621 13.24 60.6688 13.4033 60.4821 13.55C60.2954 13.7033 60.0454 13.8333 59.7321 13.94C59.4188 14.0467 59.1021 14.1 58.7821 14.1C58.2221 14.1 57.7321 13.9833 57.3121 13.75C56.8988 13.5167 56.5788 13.1967 56.3521 12.79C56.1254 12.3767 56.0121 11.9133 56.0121 11.4C56.0121 10.8267 56.1321 10.3233 56.3721 9.89C56.6121 9.45667 56.9288 9.12667 57.3221 8.9C57.7154 8.66667 58.1354 8.55 58.5821 8.55C59.0221 8.55 59.4354 8.67 59.8221 8.91C60.2154 9.15 60.5288 9.47333 60.7621 9.88C60.9954 10.2867 61.1121 10.7267 61.1121 11.2ZM58.5821 9.65C57.8088 9.65 57.3521 10.0133 57.2121 10.74H59.8321V10.67C59.8054 10.39 59.6688 10.15 59.4221 9.95C59.1754 9.75 58.8954 9.65 58.5821 9.65ZM70.0556 11.33C70.0556 11.8633 69.9356 12.3433 69.6956 12.77C69.4556 13.19 69.1256 13.5167 68.7056 13.75C68.2923 13.9833 67.8356 14.1 67.3356 14.1C66.829 14.1 66.369 13.9833 65.9556 13.75C65.5423 13.5167 65.2156 13.19 64.9756 12.77C64.7356 12.3433 64.6156 11.8633 64.6156 11.33C64.6156 10.7967 64.7356 10.32 64.9756 9.9C65.2156 9.47333 65.5423 9.14333 65.9556 8.91C66.369 8.67 66.829 8.55 67.3356 8.55C67.8356 8.55 68.2923 8.67 68.7056 8.91C69.1256 9.14333 69.4556 9.47333 69.6956 9.9C69.9356 10.32 70.0556 10.7967 70.0556 11.33ZM68.8556 11.33C68.8556 11.0033 68.7856 10.7133 68.6456 10.46C68.5123 10.2 68.329 10 68.0956 9.86C67.869 9.72 67.6156 9.65 67.3356 9.65C67.0556 9.65 66.799 9.72 66.5656 9.86C66.339 10 66.1556 10.2 66.0156 10.46C65.8823 10.7133 65.8156 11.0033 65.8156 11.33C65.8156 11.6567 65.8823 11.9467 66.0156 12.2C66.1556 12.4533 66.339 12.65 66.5656 12.79C66.799 12.93 67.0556 13 67.3356 13C67.6156 13 67.869 12.93 68.0956 12.79C68.329 12.65 68.5123 12.4533 68.6456 12.2C68.7856 11.9467 68.8556 11.6567 68.8556 11.33ZM73.9182 8.55C74.5982 8.55 75.0682 8.75333 75.3282 9.16C75.5882 9.56 75.7182 10.1167 75.7182 10.83V13.39C75.7182 13.5633 75.6615 13.71 75.5482 13.83C75.4349 13.9433 75.2915 14 75.1182 14C74.9449 14 74.8015 13.9433 74.6882 13.83C74.5749 13.71 74.5182 13.5633 74.5182 13.39V10.83C74.5182 10.4633 74.4415 10.1767 74.2882 9.97C74.1349 9.75667 73.8715 9.65 73.4982 9.65C73.1115 9.65 72.8082 9.76333 72.5882 9.99C72.3682 10.21 72.2582 10.49 72.2582 10.83V13.39C72.2582 13.5633 72.2015 13.71 72.0882 13.83C71.9749 13.9433 71.8315 14 71.6582 14C71.4849 14 71.3415 13.9433 71.2282 13.83C71.1149 13.71 71.0582 13.5633 71.0582 13.39V9.26C71.0582 9.08667 71.1149 8.94333 71.2282 8.83C71.3415 8.71 71.4849 8.65 71.6582 8.65C71.8315 8.65 71.9749 8.71 72.0882 8.83C72.2015 8.94333 72.2582 9.08667 72.2582 9.26V9.43C72.4382 9.19 72.6715 8.98333 72.9582 8.81C73.2515 8.63667 73.5715 8.55 73.9182 8.55ZM85.078 10.22C85.2513 10.22 85.3946 10.28 85.508 10.4C85.6213 10.5133 85.678 10.6567 85.678 10.83V12.95C85.678 13.1833 85.5746 13.3633 85.368 13.49C84.7146 13.8967 83.998 14.1 83.218 14.1C82.558 14.1 81.948 13.94 81.388 13.62C80.828 13.2933 80.3846 12.8567 80.058 12.31C79.7313 11.7567 79.568 11.1533 79.568 10.5C79.568 9.84667 79.7313 9.24667 80.058 8.7C80.3846 8.14667 80.828 7.71 81.388 7.39C81.948 7.06333 82.558 6.9 83.218 6.9C83.878 6.9 84.4513 7.03333 84.938 7.3C85.038 7.35333 85.1113 7.42333 85.158 7.51C85.2113 7.59667 85.238 7.69 85.238 7.79C85.238 7.95667 85.1813 8.10333 85.068 8.23C84.9613 8.35 84.828 8.41 84.668 8.41C84.568 8.41 84.458 8.38333 84.338 8.33C83.978 8.17667 83.6046 8.1 83.218 8.1C82.7913 8.1 82.398 8.21 82.038 8.43C81.678 8.64333 81.3913 8.93333 81.178 9.3C80.9713 9.66667 80.868 10.0667 80.868 10.5C80.868 10.9333 80.9713 11.3333 81.178 11.7C81.3913 12.0667 81.678 12.36 82.038 12.58C82.398 12.7933 82.7913 12.9 83.218 12.9C83.4046 12.9 83.6046 12.8833 83.818 12.85C84.0313 12.8167 84.218 12.7733 84.378 12.72V11.42H83.438C83.2646 11.42 83.118 11.3633 82.998 11.25C82.8846 11.1367 82.828 10.9933 82.828 10.82C82.828 10.6467 82.8846 10.5033 82.998 10.39C83.118 10.2767 83.2646 10.22 83.438 10.22H85.078ZM87.9109 13.39C87.9109 13.5633 87.8542 13.71 87.7409 13.83C87.6275 13.9433 87.4842 14 87.3109 14C87.1375 14 86.9942 13.9433 86.8809 13.83C86.7675 13.71 86.7109 13.5633 86.7109 13.39V9.26C86.7109 9.08667 86.7675 8.94333 86.8809 8.83C86.9942 8.71 87.1375 8.65 87.3109 8.65C87.4842 8.65 87.6275 8.71 87.7409 8.83C87.8542 8.94333 87.9109 9.08667 87.9109 9.26V13.39ZM87.3009 8C87.0742 8 86.9142 7.96333 86.8209 7.89C86.7275 7.81667 86.6809 7.68667 86.6809 7.5V7.31C86.6809 7.12333 86.7309 6.99333 86.8309 6.92C86.9309 6.84667 87.0909 6.81 87.3109 6.81C87.5442 6.81 87.7075 6.84667 87.8009 6.92C87.8942 6.99333 87.9409 7.12333 87.9409 7.31V7.5C87.9409 7.69333 87.8909 7.82667 87.7909 7.9C87.6975 7.96667 87.5342 8 87.3009 8ZM91.7241 12.87C91.8175 12.87 91.9008 12.9167 91.9741 13.01C92.0541 13.0967 92.0941 13.2133 92.0941 13.36C92.0941 13.54 91.9941 13.6933 91.7941 13.82C91.6008 13.94 91.3808 14 91.1341 14C90.7208 14 90.3708 13.9133 90.0841 13.74C89.8041 13.56 89.6641 13.1833 89.6641 12.61V9.85H89.2041C89.0441 9.85 88.9108 9.79667 88.8041 9.69C88.6975 9.58333 88.6441 9.45 88.6441 9.29C88.6441 9.13667 88.6975 9.01 88.8041 8.91C88.9108 8.80333 89.0441 8.75 89.2041 8.75H89.6641V8.11C89.6641 7.93667 89.7208 7.79333 89.8341 7.68C89.9541 7.56 90.1008 7.5 90.2741 7.5C90.4408 7.5 90.5808 7.56 90.6941 7.68C90.8075 7.79333 90.8641 7.93667 90.8641 8.11V8.75H91.5741C91.7341 8.75 91.8675 8.80333 91.9741 8.91C92.0808 9.01667 92.1341 9.15 92.1341 9.31C92.1341 9.46333 92.0808 9.59333 91.9741 9.7C91.8675 9.8 91.7341 9.85 91.5741 9.85H90.8641V12.56C90.8641 12.7 90.9008 12.8033 90.9741 12.87C91.0475 12.93 91.1475 12.96 91.2741 12.96C91.3275 12.96 91.4008 12.9467 91.4941 12.92C91.5741 12.8867 91.6508 12.87 91.7241 12.87ZM98.4059 7C98.5926 7 98.7426 7.05667 98.8559 7.17C98.9693 7.28333 99.0259 7.43 99.0259 7.61V13.39C99.0259 13.5633 98.9659 13.71 98.8459 13.83C98.7259 13.9433 98.5726 14 98.3859 14C98.2193 14 98.0759 13.9433 97.9559 13.83C97.8359 13.71 97.7759 13.5633 97.7759 13.39V11.06H94.5859V13.39C94.5859 13.5633 94.5226 13.71 94.3959 13.83C94.2693 13.9433 94.1226 14 93.9559 14C93.7759 14 93.6259 13.9433 93.5059 13.83C93.3926 13.71 93.3359 13.5633 93.3359 13.39V7.61C93.3359 7.43667 93.3959 7.29333 93.5159 7.18C93.6359 7.06 93.7893 7 93.9759 7C94.1426 7 94.2859 7.06 94.4059 7.18C94.5259 7.29333 94.5859 7.43667 94.5859 7.61V9.91H97.7759V7.61C97.7759 7.43667 97.8393 7.29333 97.9659 7.18C98.0926 7.06 98.2393 7 98.4059 7ZM104.393 8.65C104.567 8.65 104.71 8.71 104.823 8.83C104.937 8.94333 104.993 9.08667 104.993 9.26V11.8C104.993 12.52 104.793 13.0833 104.393 13.49C104 13.8967 103.437 14.1 102.703 14.1C101.97 14.1 101.407 13.8967 101.013 13.49C100.62 13.0833 100.423 12.52 100.423 11.8V9.26C100.423 9.08667 100.48 8.94333 100.593 8.83C100.707 8.71 100.85 8.65 101.023 8.65C101.197 8.65 101.34 8.71 101.453 8.83C101.567 8.94333 101.623 9.08667 101.623 9.26V11.8C101.623 12.2067 101.713 12.51 101.893 12.71C102.073 12.9033 102.343 13 102.703 13C103.07 13 103.343 12.9033 103.523 12.71C103.703 12.51 103.793 12.2067 103.793 11.8V9.26C103.793 9.08667 103.85 8.94333 103.963 8.83C104.077 8.71 104.22 8.65 104.393 8.65ZM109.063 8.55C109.523 8.55 109.939 8.67 110.313 8.91C110.686 9.14333 110.979 9.47 111.193 9.89C111.413 10.31 111.523 10.7867 111.523 11.32C111.523 11.8533 111.416 12.3333 111.203 12.76C110.989 13.18 110.696 13.51 110.323 13.75C109.956 13.9833 109.549 14.1 109.103 14.1C108.783 14.1 108.479 14.0367 108.193 13.91C107.913 13.7767 107.679 13.6167 107.493 13.43V13.49C107.493 13.6633 107.436 13.81 107.323 13.93C107.209 14.0433 107.066 14.1 106.893 14.1C106.719 14.1 106.576 14.0433 106.463 13.93C106.349 13.8167 106.293 13.67 106.293 13.49V7.21C106.293 7.03667 106.349 6.89333 106.463 6.78C106.576 6.66 106.719 6.6 106.893 6.6C107.066 6.6 107.209 6.66 107.323 6.78C107.436 6.89333 107.493 7.03667 107.493 7.21V9.3C107.653 9.1 107.876 8.92667 108.163 8.78C108.449 8.62667 108.749 8.55 109.063 8.55ZM108.913 13C109.339 13 109.689 12.84 109.963 12.52C110.236 12.2 110.373 11.8 110.373 11.32C110.373 10.84 110.236 10.4433 109.963 10.13C109.696 9.81 109.346 9.65 108.913 9.65C108.479 9.65 108.126 9.81 107.853 10.13C107.579 10.4433 107.443 10.84 107.443 11.32C107.443 11.8 107.579 12.2 107.853 12.52C108.126 12.84 108.479 13 108.913 13Z" fill="white"/>
  <path fill-rule="evenodd" clip-rule="evenodd" d="M15.154 15.8831H13.5556H11.9556C11.9556 15.8831 11.96 14.9435 11.9556 14.2986C9.76635 14.7653 9.15555 13.1103 9.15555 13.1103C8.75556 12.3181 8.35556 11.922 8.35556 11.922C7.55556 11.4515 8.35556 11.5259 8.35556 11.5259C9.15555 11.5259 9.55555 12.3181 9.55555 12.3181C10.2576 13.4989 11.5068 13.3088 11.9556 13.1103C11.9556 12.7142 12.1308 12.1153 12.3556 11.922C10.6084 11.7272 9.15395 10.7337 9.15395 8.75322C9.15395 6.77271 9.55555 6.37661 9.95555 5.98051C9.87475 5.78523 9.53995 5.06353 9.96795 4C9.96795 4 10.754 4 11.554 5.18831C11.9504 4.79577 13.154 4.7922 13.5544 4.7922C13.954 4.7922 15.1576 4.79577 15.554 5.18831C16.354 4 17.1416 4 17.1416 4C17.5695 5.06353 17.2347 5.78523 17.1539 5.98051C17.5539 6.37661 17.9539 6.77271 17.9539 8.75322C17.9539 10.7337 16.5012 11.7272 14.754 11.922C14.9788 12.1153 15.154 12.7974 15.154 13.1103V15.8831Z" fill="white"/>
</svg>
