<svg width="114" height="20" viewBox="0 0 114 20" fill="none" xmlns="http://www.w3.org/2000/svg">
  <rect width="114" height="20" rx="4" fill="#212528"/>
  <path d="M26.9121 11.0947H24.0996V14H22.6348V6.89062H27.2637V8.07715H24.0996V9.91309H26.9121V11.0947ZM27.6934 11.3096C27.6934 10.7855 27.7943 10.3184 27.9961 9.9082C28.1979 9.49805 28.4876 9.18066 28.8652 8.95605C29.2461 8.73145 29.6872 8.61914 30.1885 8.61914C30.9014 8.61914 31.4824 8.83724 31.9316 9.27344C32.3841 9.70964 32.6364 10.3021 32.6885 11.0508L32.6982 11.4121C32.6982 12.2227 32.472 12.8737 32.0195 13.3652C31.5671 13.8535 30.96 14.0977 30.1982 14.0977C29.4365 14.0977 28.8278 13.8535 28.3721 13.3652C27.9196 12.877 27.6934 12.2129 27.6934 11.373V11.3096ZM29.1045 11.4121C29.1045 11.9134 29.1989 12.2975 29.3877 12.5645C29.5765 12.8281 29.8467 12.96 30.1982 12.96C30.54 12.96 30.807 12.8298 30.999 12.5693C31.1911 12.3057 31.2871 11.8857 31.2871 11.3096C31.2871 10.818 31.1911 10.4372 30.999 10.167C30.807 9.89681 30.5368 9.76172 30.1885 9.76172C29.8434 9.76172 29.5765 9.89681 29.3877 10.167C29.1989 10.4339 29.1045 10.849 29.1045 11.4121ZM36.5361 10.04C36.3441 10.014 36.1748 10.001 36.0283 10.001C35.4945 10.001 35.1445 10.1816 34.9785 10.543V14H33.5674V8.7168H34.9004L34.9395 9.34668C35.2227 8.86165 35.6149 8.61914 36.1162 8.61914C36.2725 8.61914 36.4189 8.6403 36.5557 8.68262L36.5361 10.04ZM39.1387 11.8809L38.6309 12.3887V14H37.2197V6.5H38.6309V10.6553L38.9043 10.3037L40.2568 8.7168H41.9512L40.042 10.9189L42.1172 14H40.4961L39.1387 11.8809ZM46.375 8.7168L46.4189 9.30762C46.7933 8.84863 47.2995 8.61914 47.9375 8.61914C48.6178 8.61914 49.085 8.8877 49.3389 9.4248C49.71 8.8877 50.2389 8.61914 50.9258 8.61914C51.4987 8.61914 51.9251 8.78678 52.2051 9.12207C52.485 9.4541 52.625 9.9554 52.625 10.626V14H51.209V10.6309C51.209 10.3314 51.1504 10.1133 51.0332 9.97656C50.916 9.83659 50.7093 9.7666 50.4131 9.7666C49.9899 9.7666 49.6969 9.96842 49.5342 10.3721L49.5391 14H48.1279V10.6357C48.1279 10.3298 48.0677 10.1084 47.9473 9.97168C47.8268 9.83496 47.6217 9.7666 47.332 9.7666C46.9316 9.7666 46.6419 9.93262 46.4629 10.2646V14H45.0518V8.7168H46.375ZM56.1455 14.0977C55.3708 14.0977 54.7393 13.86 54.251 13.3848C53.766 12.9095 53.5234 12.2764 53.5234 11.4854V11.3486C53.5234 10.818 53.626 10.3444 53.8311 9.92773C54.0361 9.50781 54.3258 9.18555 54.7002 8.96094C55.0778 8.73307 55.5075 8.61914 55.9893 8.61914C56.7119 8.61914 57.2799 8.84701 57.6934 9.30273C58.11 9.75846 58.3184 10.4046 58.3184 11.2412V11.8174H54.9541C54.9997 12.1624 55.1364 12.4391 55.3643 12.6475C55.5954 12.8558 55.8867 12.96 56.2383 12.96C56.7819 12.96 57.2067 12.763 57.5127 12.3691L58.2061 13.1455C57.9945 13.445 57.708 13.6794 57.3467 13.8486C56.9854 14.0146 56.585 14.0977 56.1455 14.0977ZM55.9844 9.76172C55.7044 9.76172 55.4766 9.85612 55.3008 10.0449C55.1283 10.2337 55.0176 10.5039 54.9688 10.8555H56.9316V10.7432C56.9251 10.4307 56.8405 10.1898 56.6777 10.0205C56.515 9.84798 56.2839 9.76172 55.9844 9.76172ZM61.3945 11.3096C61.3945 10.7855 61.4954 10.3184 61.6973 9.9082C61.8991 9.49805 62.1888 9.18066 62.5664 8.95605C62.9473 8.73145 63.3883 8.61914 63.8896 8.61914C64.6025 8.61914 65.1836 8.83724 65.6328 9.27344C66.0853 9.70964 66.3376 10.3021 66.3896 11.0508L66.3994 11.4121C66.3994 12.2227 66.1732 12.8737 65.7207 13.3652C65.2682 13.8535 64.6611 14.0977 63.8994 14.0977C63.1377 14.0977 62.529 13.8535 62.0732 13.3652C61.6208 12.877 61.3945 12.2129 61.3945 11.373V11.3096ZM62.8057 11.4121C62.8057 11.9134 62.9001 12.2975 63.0889 12.5645C63.2777 12.8281 63.5479 12.96 63.8994 12.96C64.2412 12.96 64.5081 12.8298 64.7002 12.5693C64.8923 12.3057 64.9883 11.8857 64.9883 11.3096C64.9883 10.818 64.8923 10.4372 64.7002 10.167C64.5081 9.89681 64.238 9.76172 63.8896 9.76172C63.5446 9.76172 63.2777 9.89681 63.0889 10.167C62.9001 10.4339 62.8057 10.849 62.8057 11.4121ZM68.5674 8.7168L68.6113 9.32715C68.9889 8.85514 69.4951 8.61914 70.1299 8.61914C70.6898 8.61914 71.1064 8.78353 71.3799 9.1123C71.6533 9.44108 71.7933 9.93262 71.7998 10.5869V14H70.3887V10.6211C70.3887 10.3216 70.3236 10.1051 70.1934 9.97168C70.0632 9.83496 69.8467 9.7666 69.5439 9.7666C69.1468 9.7666 68.849 9.93587 68.6504 10.2744V14H67.2393V8.7168H68.5674ZM81.082 13.1016C80.8184 13.4173 80.4456 13.6631 79.9639 13.8389C79.4821 14.0114 78.9482 14.0977 78.3623 14.0977C77.7471 14.0977 77.2067 13.9642 76.7412 13.6973C76.279 13.4271 75.9209 13.0365 75.667 12.5254C75.4163 12.0143 75.2878 11.4137 75.2812 10.7236V10.2402C75.2812 9.5306 75.4001 8.91699 75.6377 8.39941C75.8786 7.87858 76.2236 7.48145 76.6729 7.20801C77.1253 6.93132 77.6543 6.79297 78.2598 6.79297C79.1029 6.79297 79.762 6.99479 80.2373 7.39844C80.7126 7.79883 80.9941 8.38314 81.082 9.15137H79.6562C79.5911 8.74447 79.4463 8.44661 79.2217 8.25781C79.0003 8.06901 78.6943 7.97461 78.3037 7.97461C77.8057 7.97461 77.4264 8.16178 77.166 8.53613C76.9056 8.91048 76.7738 9.46712 76.7705 10.2061V10.6602C76.7705 11.4056 76.9121 11.9688 77.1953 12.3496C77.4785 12.7305 77.8936 12.9209 78.4404 12.9209C78.9906 12.9209 79.3828 12.8037 79.6172 12.5693V11.3438H78.2842V10.2646H81.082V13.1016ZM83.6699 14H82.2539V8.7168H83.6699V14ZM82.1709 7.34961C82.1709 7.13802 82.2409 6.96387 82.3809 6.82715C82.5241 6.69043 82.7178 6.62207 82.9619 6.62207C83.2028 6.62207 83.3949 6.69043 83.5381 6.82715C83.6813 6.96387 83.7529 7.13802 83.7529 7.34961C83.7529 7.56445 83.6797 7.74023 83.5332 7.87695C83.39 8.01367 83.1995 8.08203 82.9619 8.08203C82.7243 8.08203 82.5322 8.01367 82.3857 7.87695C82.2425 7.74023 82.1709 7.56445 82.1709 7.34961ZM86.5264 7.41797V8.7168H87.4297V9.75195H86.5264V12.3887C86.5264 12.584 86.5638 12.724 86.6387 12.8086C86.7135 12.8932 86.8568 12.9355 87.0684 12.9355C87.2246 12.9355 87.363 12.9242 87.4834 12.9014V13.9707C87.2067 14.0553 86.9219 14.0977 86.6289 14.0977C85.6393 14.0977 85.1348 13.598 85.1152 12.5986V9.75195H84.3438V8.7168H85.1152V7.41797H86.5264ZM94.0947 14H92.6299V10.9531H89.7734V14H88.3086V6.89062H89.7734V9.77148H92.6299V6.89062H94.0947V14ZM98.4502 13.4629C98.1019 13.8861 97.6201 14.0977 97.0049 14.0977C96.4385 14.0977 96.0055 13.9349 95.7061 13.6094C95.4098 13.2839 95.2585 12.807 95.252 12.1787V8.7168H96.6631V12.1299C96.6631 12.68 96.9137 12.9551 97.415 12.9551C97.8936 12.9551 98.2223 12.7891 98.4014 12.457V8.7168H99.8174V14H98.4893L98.4502 13.4629ZM105.643 11.4072C105.643 12.2536 105.462 12.9144 105.101 13.3896C104.739 13.8617 104.235 14.0977 103.587 14.0977C103.014 14.0977 102.557 13.8779 102.215 13.4385L102.151 14H100.882V6.5H102.293V9.19043C102.618 8.80957 103.047 8.61914 103.577 8.61914C104.222 8.61914 104.726 8.85677 105.091 9.33203C105.459 9.80404 105.643 10.4697 105.643 11.3291V11.4072ZM104.231 11.3047C104.231 10.7708 104.147 10.3818 103.978 10.1377C103.808 9.8903 103.556 9.7666 103.221 9.7666C102.771 9.7666 102.462 9.95052 102.293 10.3184V12.4033C102.465 12.7744 102.778 12.96 103.23 12.96C103.686 12.96 103.986 12.7354 104.129 12.2861C104.197 12.0713 104.231 11.7441 104.231 11.3047Z" fill="white"/>
  <path fill-rule="evenodd" clip-rule="evenodd" d="M15.154 15.8831H13.5556H11.9556C11.9556 15.8831 11.96 14.9435 11.9556 14.2986C9.76635 14.7653 9.15555 13.1103 9.15555 13.1103C8.75556 12.3181 8.35556 11.922 8.35556 11.922C7.55556 11.4515 8.35556 11.5259 8.35556 11.5259C9.15555 11.5259 9.55555 12.3181 9.55555 12.3181C10.2576 13.4989 11.5068 13.3088 11.9556 13.1103C11.9556 12.7142 12.1308 12.1153 12.3556 11.922C10.6084 11.7272 9.15395 10.7337 9.15395 8.75322C9.15395 6.77271 9.55555 6.37661 9.95555 5.98051C9.87475 5.78523 9.53995 5.06353 9.96795 4C9.96795 4 10.754 4 11.554 5.18831C11.9504 4.79577 13.154 4.7922 13.5544 4.7922C13.954 4.7922 15.1576 4.79577 15.554 5.18831C16.354 4 17.1416 4 17.1416 4C17.5695 5.06353 17.2347 5.78523 17.1539 5.98051C17.5539 6.37661 17.9539 6.77271 17.9539 8.75322C17.9539 10.7337 16.5012 11.7272 14.754 11.922C14.9788 12.1153 15.154 12.7974 15.154 13.1103V15.8831Z" fill="white"/>
</svg>
