<svg width="60" height="20" viewBox="0 0 60 20" fill="none" xmlns="http://www.w3.org/2000/svg">
  <path d="M57 0H3C1.34315 0 0 1.34315 0 3V17C0 18.6569 1.34315 20 3 20H57C58.6569 20 60 18.6569 60 17V3C60 1.34315 58.6569 0 57 0Z" fill="#1B95E0"/>
  <path d="M24.4969 7.598V14H26.2239V7.598H28.5779V6.146H22.1429V7.598H24.4969ZM34.5949 14L36.3879 8.313H34.7819L33.7369 12.163H33.7149L32.7469 8.313H31.2289L30.2829 12.174H30.2609L29.2159 8.313H27.5659L29.3699 14H30.9869L31.9549 10.183H31.9769L32.9889 14H34.5949ZM40.8809 10.546H38.3399C38.3472 10.436 38.3692 10.3113 38.4059 10.172C38.4499 10.0327 38.5196 9.90067 38.6149 9.776C38.7176 9.65133 38.8496 9.54867 39.0109 9.468C39.1796 9.38 39.3886 9.336 39.6379 9.336C40.0192 9.336 40.3016 9.43867 40.4849 9.644C40.6756 9.84933 40.8076 10.15 40.8809 10.546ZM38.3399 11.536H42.4429C42.4722 11.096 42.4356 10.6743 42.3329 10.271C42.2302 9.86767 42.0616 9.50833 41.8269 9.193C41.5996 8.87767 41.3062 8.62833 40.9469 8.445C40.5876 8.25433 40.1659 8.159 39.6819 8.159C39.2492 8.159 38.8532 8.236 38.4939 8.39C38.1419 8.544 37.8376 8.75667 37.5809 9.028C37.3242 9.292 37.1262 9.60733 36.9869 9.974C36.8476 10.3407 36.7779 10.7367 36.7779 11.162C36.7779 11.602 36.8439 12.0053 36.9759 12.372C37.1152 12.7387 37.3096 13.054 37.5589 13.318C37.8082 13.582 38.1126 13.7873 38.4719 13.934C38.8312 14.0733 39.2346 14.143 39.6819 14.143C40.3272 14.143 40.8772 13.9963 41.3319 13.703C41.7866 13.4097 42.1239 12.922 42.3439 12.24H40.9689C40.9176 12.416 40.7782 12.5847 40.5509 12.746C40.3236 12.9 40.0522 12.977 39.7369 12.977C39.2969 12.977 38.9596 12.8633 38.7249 12.636C38.4902 12.4087 38.3619 12.042 38.3399 11.536ZM47.1973 10.546H44.6563C44.6636 10.436 44.6856 10.3113 44.7223 10.172C44.7663 10.0327 44.836 9.90067 44.9313 9.776C45.034 9.65133 45.166 9.54867 45.3273 9.468C45.496 9.38 45.705 9.336 45.9543 9.336C46.3356 9.336 46.618 9.43867 46.8013 9.644C46.992 9.84933 47.124 10.15 47.1973 10.546ZM44.6563 11.536H48.7593C48.7886 11.096 48.752 10.6743 48.6493 10.271C48.5466 9.86767 48.378 9.50833 48.1433 9.193C47.916 8.87767 47.6226 8.62833 47.2633 8.445C46.904 8.25433 46.4823 8.159 45.9983 8.159C45.5656 8.159 45.1696 8.236 44.8103 8.39C44.4583 8.544 44.154 8.75667 43.8973 9.028C43.6406 9.292 43.4426 9.60733 43.3033 9.974C43.164 10.3407 43.0943 10.7367 43.0943 11.162C43.0943 11.602 43.1603 12.0053 43.2923 12.372C43.4316 12.7387 43.626 13.054 43.8753 13.318C44.1246 13.582 44.429 13.7873 44.7883 13.934C45.1476 14.0733 45.551 14.143 45.9983 14.143C46.6436 14.143 47.1936 13.9963 47.6483 13.703C48.103 13.4097 48.4403 12.922 48.6603 12.24H47.2853C47.234 12.416 47.0946 12.5847 46.8673 12.746C46.64 12.9 46.3686 12.977 46.0533 12.977C45.6133 12.977 45.276 12.8633 45.0413 12.636C44.8066 12.4087 44.6783 12.042 44.6563 11.536ZM51.6657 8.313V6.608H50.1037V8.313H49.1577V9.358H50.1037V12.713C50.1037 12.999 50.1514 13.23 50.2467 13.406C50.342 13.582 50.4704 13.7177 50.6317 13.813C50.8004 13.9083 50.991 13.9707 51.2037 14C51.4237 14.0367 51.6547 14.055 51.8967 14.055C52.0507 14.055 52.2084 14.0513 52.3697 14.044C52.531 14.0367 52.6777 14.022 52.8097 14V12.79C52.7364 12.8047 52.6594 12.8157 52.5787 12.823C52.498 12.8303 52.4137 12.834 52.3257 12.834C52.0617 12.834 51.8857 12.79 51.7977 12.702C51.7097 12.614 51.6657 12.438 51.6657 12.174V9.358H52.8097V8.313H51.6657Z" fill="white"/>
  <path d="M19.3802 5.94389C18.9237 6.14611 18.4333 6.283 17.918 6.34444C18.4438 6.02944 18.8474 5.5305 19.0374 4.93608C18.5455 5.22775 18.001 5.44008 17.4208 5.55364C16.9571 5.05917 16.2956 4.75 15.5633 4.75C14.1574 4.75 13.0176 5.88944 13.0176 7.29586C13.0176 7.49536 13.0406 7.68864 13.0833 7.87531C10.9668 7.76914 9.09173 6.75628 7.83562 5.21589C7.61687 5.59233 7.49146 6.02944 7.49146 6.49533C7.49146 7.37869 7.94101 8.15822 8.6239 8.61478C8.20662 8.60117 7.81404 8.48683 7.47084 8.29589C7.47046 8.30678 7.47046 8.31728 7.47046 8.32758C7.47046 9.56133 8.34798 10.5905 9.5129 10.8242C9.29901 10.8822 9.07423 10.9131 8.84207 10.9131C8.67776 10.9131 8.51812 10.8979 8.36296 10.8684C8.68709 11.8795 9.62684 12.6155 10.7411 12.6359C9.86951 13.3184 8.77129 13.7258 7.57934 13.7258C7.37421 13.7258 7.17179 13.7141 6.97229 13.69C8.0989 14.4127 9.43707 14.8337 10.8742 14.8337C15.5571 14.8337 18.1173 10.9545 18.1173 7.59064C18.1173 7.48078 18.1148 7.37033 18.1099 7.26144C18.6073 6.90231 19.039 6.4545 19.38 5.94428L19.3802 5.94389Z" fill="white"/>
</svg>
